<svg width="431" height="388" viewBox="0 0 431 388" fill="none" xmlns="http://www.w3.org/2000/svg">
<path d="M19.4675 257.598L24.211 253.57L25.9927 255.575L21.2492 259.603L25.9326 264.873L23.7595 266.719L19.0761 261.448L14.3326 265.476L12.5509 263.471L17.2944 259.443L12.9673 254.574L15.1404 252.728L19.4675 257.598Z" fill="#FF2E00"/>
<path d="M78.2058 323.697L82.9492 319.668L84.731 321.674L79.9875 325.702L84.6709 330.972L82.4978 332.818L77.8144 327.547L73.0709 331.575L71.2891 329.57L76.0326 325.542L71.7056 320.672L73.8787 318.827L78.2058 323.697Z" fill="#A2A1A3"/>
<path d="M136.944 389.798L141.688 385.77L143.469 387.775L138.726 391.803L143.409 397.074L141.236 398.919L136.553 393.648L131.809 397.677L130.027 395.671L134.771 391.643L130.444 386.774L132.617 384.928L136.944 389.798Z" fill="#A2A1A3"/>
<path d="M87.0886 200.171L91.832 196.142L93.6138 198.148L88.8703 202.176L93.5537 207.446L91.3806 209.292L86.6972 204.021L81.9537 208.049L80.172 206.044L84.9154 202.016L80.5884 197.146L82.7615 195.301L87.0886 200.171Z" fill="#A2A1A3"/>
<path d="M145.823 266.274L150.566 262.246L152.348 264.251L147.605 268.279L152.288 273.55L150.115 275.395L145.432 270.124L140.688 274.153L138.906 272.147L143.65 268.119L139.323 263.25L141.496 261.404L145.823 266.274Z" fill="#A2A1A3"/>
<path d="M204.565 332.375L209.309 328.347L211.09 330.352L206.347 334.38L211.03 339.651L208.857 341.496L204.174 336.226L199.43 340.254L197.649 338.249L202.392 334.221L198.065 329.351L200.238 327.506L204.565 332.375Z" fill="#A2A1A3"/>
<path d="M154.702 142.748L159.445 138.72L161.227 140.725L156.484 144.753L161.167 150.023L158.994 151.869L154.31 146.598L149.567 150.626L147.785 148.621L152.529 144.593L148.202 139.724L150.375 137.878L154.702 142.748Z" fill="#A2A1A3"/>
<path d="M213.448 208.851L218.191 204.823L219.973 206.828L215.23 210.856L219.913 216.127L217.74 217.972L213.057 212.702L208.313 216.73L206.531 214.725L211.275 210.697L206.948 205.827L209.121 203.982L213.448 208.851Z" fill="#A2A1A3"/>
<path d="M272.186 274.955L276.93 270.927L278.711 272.932L273.968 276.96L278.651 282.231L276.478 284.076L271.795 278.805L267.051 282.834L265.27 280.829L270.013 276.8L265.686 271.931L267.859 270.085L272.186 274.955Z" fill="#6246E5"/>
<path d="M330.925 341.056L335.668 337.028L337.45 339.033L332.706 343.061L337.39 348.332L335.217 350.177L330.533 344.907L325.79 348.935L324.008 346.93L328.751 342.902L324.424 338.032L326.597 336.187L330.925 341.056Z" fill="#A2A1A3"/>
<path d="M222.323 85.3252L227.066 81.2971L228.848 83.3022L224.105 87.3303L228.788 92.6009L226.615 94.4463L221.932 89.1757L217.188 93.2039L215.406 91.1988L220.15 87.1706L215.823 82.3011L217.996 80.4557L222.323 85.3252Z" fill="#A2A1A3"/>
<path d="M281.065 151.429L285.809 147.401L287.59 149.406L282.847 153.434L287.53 158.705L285.357 160.55L280.674 155.279L275.93 159.308L274.149 157.303L278.892 153.274L274.565 148.405L276.738 146.559L281.065 151.429Z" fill="#A2A1A3"/>
<path d="M339.803 217.532L344.547 213.504L346.329 215.509L341.585 219.537L346.269 224.808L344.095 226.653L339.412 221.383L334.669 225.411L332.887 223.406L337.63 219.378L333.303 214.508L335.476 212.663L339.803 217.532Z" fill="#A2A1A3"/>
<path d="M398.542 283.634L403.285 279.606L405.067 281.611L400.323 285.639L405.007 290.909L402.834 292.755L398.15 287.484L393.407 291.512L391.625 289.507L396.369 285.479L392.041 280.61L394.215 278.764L398.542 283.634Z" fill="#A2A1A3"/>
<path d="M289.948 27.9026L294.691 23.8745L296.473 25.8796L291.73 29.9077L296.413 35.1783L294.24 37.0237L289.557 31.7531L284.813 35.7813L283.031 33.7762L287.775 29.748L283.448 24.8785L285.621 23.0331L289.948 27.9026Z" fill="#A2A1A3"/>
<path d="M348.682 94.0064L353.426 89.9782L355.208 91.9833L350.464 96.0115L355.147 101.282L352.974 103.127L348.291 97.8569L343.547 101.885L341.766 99.8799L346.509 95.8518L342.182 90.9822L344.355 89.1368L348.682 94.0064Z" fill="#A2A1A3"/>
<path d="M407.425 160.11L412.168 156.082L413.95 158.087L409.206 162.115L413.89 167.386L411.717 169.231L407.033 163.961L402.29 167.989L400.508 165.984L405.251 161.956L400.924 157.086L403.097 155.241L407.425 160.11Z" fill="#A2A1A3"/>
</svg>
