<svg width="429" height="377" viewBox="0 0 429 377" fill="none" xmlns="http://www.w3.org/2000/svg">
<path d="M128.921 19.7101L133.665 23.7381L131.883 25.7433L127.139 21.7152L122.456 26.9859L120.283 25.1405L124.966 19.8699L120.223 15.8418L122.004 13.8367L126.748 17.8647L131.075 12.9951L133.248 14.8405L128.921 19.7101Z" fill="#FF2E00"/>
<path d="M70.1848 85.8109L74.9283 89.839L73.1466 91.8441L68.4031 87.816L63.7197 93.0867L61.5466 91.2413L66.2299 85.9707L61.4864 81.9426L63.2681 79.9375L68.0116 83.9655L72.3386 79.0959L74.5118 80.9413L70.1848 85.8109Z" fill="#A2A1A3"/>
<path d="M11.4543 151.915L16.1979 155.943L14.4162 157.948L9.67261 153.92L4.98928 159.191L2.81612 157.345L7.49946 152.075L2.75591 148.047L4.53761 146.041L9.28116 150.069L13.6082 145.2L15.7813 147.045L11.4543 151.915Z" fill="#A2A1A3"/>
<path d="M196.546 77.1282L201.29 81.1562L199.508 83.1614L194.764 79.1333L190.081 84.4039L187.908 82.5586L192.591 77.2879L187.848 73.2599L189.629 71.2548L194.373 75.2828L198.7 70.4132L200.873 72.2586L196.546 77.1282Z" fill="#A2A1A3"/>
<path d="M137.808 143.232L142.551 147.26L140.77 149.265L136.026 145.237L131.343 150.508L129.17 148.663L133.853 143.392L129.109 139.364L130.891 137.359L135.635 141.387L139.962 136.517L142.135 138.363L137.808 143.232Z" fill="#A2A1A3"/>
<path d="M79.0735 209.336L83.817 213.364L82.0353 215.369L77.2918 211.341L72.6084 216.612L70.4353 214.766L75.1186 209.496L70.375 205.468L72.1567 203.463L76.9003 207.491L81.2273 202.621L83.4004 204.466L79.0735 209.336Z" fill="#A2A1A3"/>
<path d="M20.3352 275.44L25.0787 279.468L23.297 281.473L18.5535 277.445L13.8701 282.716L11.697 280.871L16.3803 275.6L11.6368 271.572L13.4185 269.567L18.162 273.595L22.489 268.725L24.6622 270.571L20.3352 275.44Z" fill="#A2A1A3"/>
<path d="M264.167 134.549L268.911 138.577L267.129 140.583L262.386 136.555L257.702 141.825L255.529 139.98L260.212 134.709L255.469 130.681L257.25 128.676L261.994 132.704L266.321 127.834L268.494 129.68L264.167 134.549Z" fill="#A2A1A3"/>
<path d="M205.429 200.654L210.172 204.682L208.391 206.687L203.647 202.659L198.964 207.929L196.791 206.084L201.474 200.813L196.731 196.785L198.512 194.78L203.256 198.808L207.583 193.939L209.756 195.784L205.429 200.654Z" fill="#A2A1A3"/>
<path d="M146.691 266.757L151.434 270.786L149.652 272.791L144.909 268.763L140.226 274.033L138.052 272.188L142.736 266.917L137.992 262.889L139.774 260.884L144.517 264.912L148.844 260.042L151.018 261.888L146.691 266.757Z" fill="#6246E5"/>
<path d="M87.9543 332.862L92.6979 336.89L90.9162 338.895L86.1726 334.867L81.4893 340.137L79.3161 338.292L83.9995 333.021L79.2559 328.993L81.0376 326.988L85.7812 331.016L90.1082 326.147L92.2813 327.992L87.9543 332.862Z" fill="#A2A1A3"/>
<path d="M331.79 191.971L336.534 195.999L334.752 198.004L330.009 193.976L325.325 199.247L323.152 197.401L327.835 192.131L323.092 188.103L324.874 186.097L329.617 190.125L333.944 185.256L336.117 187.101L331.79 191.971Z" fill="#A2A1A3"/>
<path d="M273.052 258.075L277.796 262.103L276.014 264.108L271.27 260.08L266.587 265.351L264.414 263.505L269.097 258.235L264.354 254.207L266.135 252.202L270.879 256.23L275.206 251.36L277.379 253.205L273.052 258.075Z" fill="#A2A1A3"/>
<path d="M214.312 324.179L219.055 328.207L217.274 330.212L212.53 326.184L207.847 331.454L205.674 329.609L210.357 324.338L205.613 320.31L207.395 318.305L212.139 322.333L216.466 317.464L218.639 319.309L214.312 324.179Z" fill="#A2A1A3"/>
<path d="M399.411 249.392L404.155 253.42L402.373 255.425L397.63 251.397L392.946 256.668L390.773 254.823L395.456 249.552L390.713 245.524L392.495 243.519L397.238 247.547L401.565 242.677L403.738 244.523L399.411 249.392Z" fill="#A2A1A3"/>
<path d="M340.673 315.497L345.417 319.525L343.635 321.53L338.891 317.502L334.208 322.773L332.035 320.927L336.718 315.657L331.975 311.629L333.756 309.623L338.5 313.651L342.827 308.782L345 310.627L340.673 315.497Z" fill="#A2A1A3"/>
<path d="M281.935 381.601L286.678 385.629L284.897 387.635L280.153 383.606L275.47 388.877L273.297 387.032L277.98 381.761L273.236 377.733L275.018 375.728L279.762 379.756L284.089 374.886L286.262 376.732L281.935 381.601Z" fill="#A2A1A3"/>
</svg>
