<svg width="189" height="30" viewBox="0 0 189 30" fill="none" xmlns="http://www.w3.org/2000/svg">
<path d="M31.0344 11.4827H19.1896L15.5172 0L11.8448 11.4827H0L9.56895 18.5689L5.94827 30L15.5172 22.9138L25.0862 30L21.4138 18.5172L31.0344 11.4827Z" fill="#6D459C"/>
<path d="M70.3391 11.4827H58.4943L54.8219 0L51.1495 11.4827H39.3047L48.8736 18.5689L45.253 30L54.8219 22.9138L64.3909 30L60.7184 18.5172L70.3391 11.4827Z" fill="#6D459C"/>
<path d="M109.656 11.4827H97.8107L94.1383 0L90.4659 11.4827H78.6211L88.19 18.5689L84.5694 30L94.1383 22.9138L103.707 30L100.035 18.5172L109.656 11.4827Z" fill="#6D459C"/>
<path d="M148.96 11.4827H137.115L133.443 0L129.771 11.4827H117.926L127.495 18.5689L123.874 30L133.443 22.9138L143.012 30L139.34 18.5172L148.96 11.4827Z" fill="#6D459C"/>
<path d="M188.273 11.4827H176.428L172.755 0L169.083 11.4827H157.238L166.807 18.5689L163.187 30L172.755 22.9138L182.324 30L178.652 18.5172L188.273 11.4827Z" fill="#6D459C"/>
</svg>
