<svg width="35" height="35" viewBox="0 0 35 35" fill="none" xmlns="http://www.w3.org/2000/svg">
<g filter="url(#filter0_d_1929_29)">
<rect x="5" y="5" width="25" height="25" rx="3.11919" fill="#F3F3F3"/>
</g>
<path d="M17.4992 18.2154C17.8957 18.2154 18.2142 17.8937 18.2142 17.5004C18.2142 17.1072 17.8957 16.7854 17.4992 16.7854C17.1059 16.7854 16.7842 17.1072 16.7842 17.5004C16.7842 17.8937 17.106 18.2154 17.4992 18.2154Z" fill="#6D459C"/>
<path d="M17.5 11C13.9088 11 11 13.9088 11 17.5C11 21.088 13.9088 24 17.5 24C21.0912 24 24 21.088 24 17.5C24 13.9088 21.0912 11 17.5 11ZM18.9235 18.9235L13.6 21.4L16.0765 16.0765L21.4 13.6L18.9235 18.9235Z" fill="#6D459C"/>
<defs>
<filter id="filter0_d_1929_29" x="0" y="0" width="35" height="35" filterUnits="userSpaceOnUse" color-interpolation-filters="sRGB">
<feFlood flood-opacity="0" result="BackgroundImageFix"/>
<feColorMatrix in="SourceAlpha" type="matrix" values="0 0 0 0 0 0 0 0 0 0 0 0 0 0 0 0 0 0 127 0" result="hardAlpha"/>
<feOffset/>
<feGaussianBlur stdDeviation="2.5"/>
<feColorMatrix type="matrix" values="0 0 0 0 0.0850694 0 0 0 0 0.118417 0 0 0 0 0.204167 0 0 0 0.09 0"/>
<feBlend mode="normal" in2="BackgroundImageFix" result="effect1_dropShadow_1929_29"/>
<feBlend mode="normal" in="SourceGraphic" in2="effect1_dropShadow_1929_29" result="shape"/>
</filter>
</defs>
</svg>
