<svg width="25" height="25" viewBox="0 0 25 25" fill="none" xmlns="http://www.w3.org/2000/svg">
<rect width="25" height="25" rx="3.11919" fill="white"/>
<path d="M12.4982 13.2155C12.8947 13.2155 13.2132 12.8938 13.2132 12.5005C13.2132 12.1073 12.8947 11.7855 12.4982 11.7855C12.105 11.7855 11.7832 12.1073 11.7832 12.5005C11.7832 12.8938 12.105 13.2155 12.4982 13.2155Z" fill="#FFB681"/>
<path d="M12.5 6C8.90876 6 6 8.90876 6 12.5C6 16.088 8.90876 19 12.5 19C16.0912 19 19 16.088 19 12.5C19 8.90876 16.0912 6 12.5 6ZM13.9235 13.9235L8.59999 16.4L11.0765 11.0765L16.4 8.59999L13.9235 13.9235Z" fill="#FFB681"/>
</svg>
