<svg width="18" height="21" viewBox="0 0 18 21" fill="none" xmlns="http://www.w3.org/2000/svg">
<path d="M9.21484 0.180054C13.9095 0.180054 17.7148 3.98544 17.7148 8.68005C17.7148 12.2718 15.191 16.1862 10.2087 20.465C9.93165 20.703 9.57843 20.8337 9.21321 20.8334C8.84799 20.833 8.495 20.7017 8.21838 20.4632L7.88884 20.1773C3.1271 16.0101 0.714844 12.1916 0.714844 8.68005C0.714844 3.98544 4.52023 0.180054 9.21484 0.180054ZM9.21484 1.48775C7.30733 1.48775 5.47793 2.2455 4.12911 3.59432C2.7803 4.94314 2.02254 6.77253 2.02254 8.68005C2.02254 11.7331 4.24387 15.2508 8.74756 19.1913L9.07274 19.4729C9.11228 19.5069 9.1627 19.5256 9.21484 19.5256C9.26699 19.5256 9.31741 19.5069 9.35695 19.4729C14.0786 15.4173 16.4072 11.8054 16.4072 8.68005C16.4072 7.73555 16.2211 6.80029 15.8597 5.92768C15.4982 5.05507 14.9684 4.26219 14.3006 3.59432C13.6327 2.92646 12.8398 2.39668 11.9672 2.03523C11.0946 1.67378 10.1594 1.48775 9.21484 1.48775ZM9.21484 5.41082C10.0819 5.41082 10.9134 5.75526 11.5265 6.36836C12.1396 6.98146 12.4841 7.813 12.4841 8.68005C12.4841 9.54711 12.1396 10.3786 11.5265 10.9917C10.9134 11.6048 10.0819 11.9493 9.21484 11.9493C8.34779 11.9493 7.51625 11.6048 6.90315 10.9917C6.29005 10.3786 5.94561 9.54711 5.94561 8.68005C5.94561 7.813 6.29005 6.98146 6.90315 6.36836C7.51625 5.75526 8.34779 5.41082 9.21484 5.41082ZM9.21484 6.71851C8.69461 6.71851 8.19569 6.92518 7.82783 7.29304C7.45997 7.6609 7.25331 8.15982 7.25331 8.68005C7.25331 9.20029 7.45997 9.69921 7.82783 10.0671C8.19569 10.4349 8.69461 10.6416 9.21484 10.6416C9.73508 10.6416 10.234 10.4349 10.6019 10.0671C10.9697 9.69921 11.1764 9.20029 11.1764 8.68005C11.1764 8.15982 10.9697 7.6609 10.6019 7.29304C10.234 6.92518 9.73508 6.71851 9.21484 6.71851Z" fill="black"/>
</svg>
