<?xml version="1.0" encoding="utf-8"?>
<!-- Generator: Adobe Illustrator 16.0.3, SVG Export Plug-In . SVG Version: 6.00 Build 0)  -->
<!DOCTYPE svg PUBLIC "-//W3C//DTD SVG 1.1//EN" "http://www.w3.org/Graphics/SVG/1.1/DTD/svg11.dtd">
<svg version="1.1" id="Layer_1" xmlns="http://www.w3.org/2000/svg" xmlns:xlink="http://www.w3.org/1999/xlink" x="0px" y="0px"
	 width="78px" height="78px" viewBox="-22.5 -21 78 78" enable-background="new -22.5 -21 78 78" xml:space="preserve">
<g>
	<path fill="#09C269" d="M16.564,35.506H13.83c-1.357,0-2.461-1.104-2.461-2.461V16.092c0-1.357,1.104-2.461,2.461-2.461h2.734
		c1.357,0,2.461,1.104,2.461,2.461v16.953C19.025,34.402,17.922,35.506,16.564,35.506z M13.83,15.818
		c-0.151,0-0.273,0.123-0.273,0.273v16.953c0,0.15,0.123,0.273,0.273,0.273h2.734c0.151,0,0.273-0.123,0.273-0.273V16.092
		c0-0.151-0.123-0.273-0.273-0.273H13.83z"/>
	<path fill="#09C269" d="M6.174,35.506H3.439c-1.357,0-2.461-1.104-2.461-2.461V21.561c0-1.357,1.104-2.461,2.461-2.461h2.734
		c1.357,0,2.461,1.104,2.461,2.461v11.484C8.635,34.402,7.531,35.506,6.174,35.506z M3.439,21.287c-0.151,0-0.273,0.123-0.273,0.273
		v11.484c0,0.15,0.123,0.273,0.273,0.273h2.734c0.151,0,0.273-0.123,0.273-0.273V21.561c0-0.15-0.123-0.273-0.273-0.273H3.439z"/>
	<path fill="#09C269" d="M26.953,35.506h-2.734c-1.357,0-2.461-1.104-2.461-2.461V10.35h-1.503c-0.702,0-1.321-0.396-1.614-1.035
		c-0.294-0.638-0.192-1.366,0.265-1.899c0.005-0.006,0.011-0.012,0.017-0.018l5.85-6.528c0.207-0.231,0.504-0.364,0.814-0.364
		S26.193,0.638,26.4,0.87l5.85,6.528c0.006,0.006,0.011,0.012,0.016,0.018c0.457,0.533,0.559,1.261,0.266,1.899
		s-0.912,1.035-1.615,1.035h-1.502v22.695C29.414,34.402,28.31,35.506,26.953,35.506L26.953,35.506z M21.174,8.162h1.678
		c0.604,0,1.094,0.49,1.094,1.094v23.789c0,0.15,0.123,0.273,0.273,0.273h2.734c0.15,0,0.273-0.123,0.273-0.273V9.256
		c0-0.604,0.489-1.094,1.094-1.094h1.678l-4.412-4.924L21.174,8.162z"/>
</g>
</svg>
