<?xml version="1.0" encoding="utf-8"?>
<!-- Generator: Adobe Illustrator 16.0.3, SVG Export Plug-In . SVG Version: 6.00 Build 0)  -->
<!DOCTYPE svg PUBLIC "-//W3C//DTD SVG 1.1//EN" "http://www.w3.org/Graphics/SVG/1.1/DTD/svg11.dtd">
<svg version="1.1" id="Layer_1" xmlns="http://www.w3.org/2000/svg" xmlns:xlink="http://www.w3.org/1999/xlink" x="0px" y="0px"
	 width="78px" height="78px" viewBox="-18.5 -18 78 78" enable-background="new -18.5 -18 78 78" xml:space="preserve">
<path fill="#F19F5B" d="M20.496,0.507l-8.051,4.659v3.507l-8.36,4.79v8.591L0.5,24.129v9.32l8.055,4.664l2.85-1.652l9.095,5.205
	l9.09-5.205l2.855,1.652l8.055-4.664v-9.322l-3.584-2.07v-8.593l-8.364-4.79V5.166L20.496,0.507z M20.496,2.556l5.363,3.109
	L20.5,8.744l-5.359-3.082l5.355-3.104V2.556z M14.223,7.187l5.389,3.096v6.304l-5.389-3.123V7.187z M26.773,7.187v6.277
	l-5.382,3.118V10.28L26.773,7.187z M28.552,10.723l6.589,3.768v6.539l-2.695-1.561l-8.056,4.658v9.322l3.427,1.982L20.5,39.617
	l-7.313-4.186l3.423-1.982v-9.322l-8.055-4.658l-2.692,1.557v-6.534l6.582-3.766v3.765h0.003l8.052,4.66l8.052-4.66V10.723z
	 M8.555,21.521l5.359,3.102l-5.359,3.082l-5.359-3.08l0.889-0.517L8.555,21.521z M32.445,21.521l4.471,2.59l0.885,0.514l-5.355,3.08
	l-5.359-3.08L32.445,21.521L32.445,21.521z M2.282,26.144l5.389,3.103v6.305l-5.389-3.129v-6.276V26.144z M14.832,26.144v6.28
	L9.624,35.44L9.45,35.543v-6.299l5.382-3.099V26.144z M26.168,26.144l5.392,3.103v6.305l-0.183-0.111l-5.209-3.016v-6.278V26.144z
	 M38.719,26.144v6.28l-5.384,3.119v-6.297L38.719,26.144z"/>
</svg>
