<?xml version="1.0" encoding="utf-8"?>
<!-- Generator: Adobe Illustrator 16.0.3, SVG Export Plug-In . SVG Version: 6.00 Build 0)  -->
<!DOCTYPE svg PUBLIC "-//W3C//DTD SVG 1.1//EN" "http://www.w3.org/Graphics/SVG/1.1/DTD/svg11.dtd">
<svg version="1.1" id="Layer_1" xmlns="http://www.w3.org/2000/svg" xmlns:xlink="http://www.w3.org/1999/xlink" x="0px" y="0px"
	 width="78px" height="78px" viewBox="-18.5 -19.5 78 78" enable-background="new -18.5 -19.5 78 78" xml:space="preserve">
<g>
	<path fill="#451DB8" d="M11.199,24.657c0.374-0.215,0.501-0.693,0.286-1.066c-0.216-0.373-0.694-0.502-1.067-0.287
		c-0.374,0.217-0.501,0.694-0.286,1.068C10.347,24.745,10.825,24.873,11.199,24.657z"/>
	<path fill="#451DB8" d="M7.998,30.048l3.935,6.814c0.849,1.472,2.759,2.017,4.269,1.144c1.495-0.863,2.008-2.773,1.144-4.269
		l-2.343-4.059l2.029-1.172c0.374-0.217,0.501-0.693,0.286-1.067l-1.016-1.76c0.121-0.023,0.917-0.18,14.962-2.935
		c1.736-0.095,2.777-1.994,1.9-3.512l-2.596-4.497l1.658-2.513c0.163-0.247,0.173-0.565,0.025-0.821l-1.562-2.706
		c-0.148-0.256-0.43-0.407-0.725-0.389l-3.005,0.18l-2.883-4.992c-0.417-0.723-1.165-1.161-2.001-1.171c-0.01,0-0.02,0-0.029,0
		c-0.807,0-1.539,0.402-1.973,1.081l-10.205,13l-6.634,3.83c-2.61,1.507-3.514,4.854-2.002,7.471
		C2.614,30.097,5.526,31.037,7.998,30.048z M15.992,34.52c0.432,0.746,0.176,1.701-0.572,2.134c-0.75,0.435-1.707,0.167-2.134-0.572
		l-3.906-6.766l2.707-1.563C16.606,35.584,15.919,34.394,15.992,34.52z M14.22,28.325l-0.781-1.354l1.353-0.781l0.781,1.354
		L14.22,28.325z M29.577,9.895l1.079,1.87l-0.963,1.458L27.833,10L29.577,9.895z M21.381,4.26c0.209-0.343,0.542-0.378,0.677-0.375
		c0.134,0.001,0.466,0.043,0.666,0.39l9.086,15.74c0.297,0.512-0.063,1.156-0.657,1.171c-0.105,0.003-0.154,0.021-0.428,0.072
		L21.113,4.61C21.314,4.35,21.34,4.325,21.381,4.26z M20.074,5.934l9.03,15.642l-13.628,2.673l-4.144-7.178L20.074,5.934z
		 M2.586,26.923c-0.343-0.594-0.524-1.268-0.524-1.949c0-1.393,0.749-2.69,1.954-3.387l6.088-3.515l3.906,6.765l-6.089,3.517
		C6.056,29.431,3.663,28.788,2.586,26.923z"/>
	<path fill="#451DB8" d="M8.777,25.149c-0.216-0.374-0.693-0.502-1.067-0.286l-1.354,0.781c-0.373,0.216-0.852,0.087-1.067-0.286
		c-0.216-0.373-0.694-0.502-1.067-0.286c-0.374,0.216-0.501,0.694-0.286,1.067c0.642,1.113,2.077,1.507,3.201,0.857l1.354-0.781
		C8.865,26.001,8.993,25.522,8.777,25.149z"/>
	<path fill="#451DB8" d="M39.339,3.995l-4.354,2.422c-0.377,0.21-0.514,0.686-0.303,1.063c0.209,0.376,0.685,0.513,1.063,0.303
		l4.353-2.422c0.378-0.21,0.513-0.686,0.304-1.063C40.19,3.92,39.716,3.785,39.339,3.995z"/>
	<path fill="#451DB8" d="M38.879,12.084l-3.019-0.809c-0.417-0.112-0.846,0.136-0.957,0.552c-0.111,0.417,0.136,0.845,0.553,0.957
		l3.019,0.809c0.419,0.113,0.846-0.139,0.957-0.552C39.543,12.625,39.296,12.196,38.879,12.084z"/>
	<path fill="#451DB8" d="M31.295,1.155l-0.809,3.019c-0.111,0.417,0.135,0.845,0.553,0.957c0.415,0.111,0.844-0.135,0.956-0.552
		l0.809-3.019c0.112-0.417-0.135-0.845-0.553-0.957C31.835,0.491,31.407,0.738,31.295,1.155z"/>
</g>
</svg>
