<svg width="141" height="152" viewBox="0 0 141 152" fill="none" xmlns="http://www.w3.org/2000/svg">
<path d="M8.2935 13.6388H13.0528V15.6903H8.2935V21.0826H6.11312V15.6903H1.3538V13.6388H6.11312V8.65678H8.2935V13.6388Z" fill="#FF7152"/>
<path d="M8.2935 45.4146H13.0528V47.4661H8.2935V52.8584H6.11312V47.4661H1.3538V45.4146H6.11312V40.4326H8.2935V45.4146Z" fill="#C3C1C5"/>
<path d="M8.2935 77.1917H13.0528V79.2431H8.2935V84.6354H6.11312V79.2431H1.3538V77.1917H6.11312V72.2096H8.2935V77.1917Z" fill="#C3C1C5"/>
<path d="M40.0704 13.6376H44.8297V15.689H40.0704V21.0814H37.89V15.689H33.1307V13.6376H37.89V8.65556H40.0704V13.6376Z" fill="#C3C1C5"/>
<path d="M40.0704 45.4146H44.8297V47.4661H40.0704V52.8584H37.89V47.4661H33.1307V45.4146H37.89V40.4326H40.0704V45.4146Z" fill="#C3C1C5"/>
<path d="M40.0704 77.1917H44.8297V79.2431H40.0704V84.6354H37.89V79.2431H33.1307V77.1917H37.89V72.2096H40.0704V77.1917Z" fill="#C3C1C5"/>
<path d="M40.0704 108.969H44.8297V111.02H40.0704V116.412H37.89V111.02H33.1307V108.969H37.89V103.987H40.0704V108.969Z" fill="#C3C1C5"/>
<path d="M71.8477 13.6376H76.607V15.689H71.8477V21.0814H69.6673V15.689H64.908V13.6376H69.6673V8.65556H71.8477V13.6376Z" fill="#C3C1C5"/>
<path d="M71.8477 45.4146H76.607V47.4661H71.8477V52.8584H69.6673V47.4661H64.908V45.4146H69.6673V40.4326H71.8477V45.4146Z" fill="#C3C1C5"/>
<path d="M71.8477 77.1917H76.607V79.2431H71.8477V84.6354H69.6673V79.2431H64.908V77.1917H69.6673V72.2096H71.8477V77.1917Z" fill="#6246E5"/>
<path d="M71.8477 108.969H76.607V111.02H71.8477V116.412H69.6673V111.02H64.908V108.969H69.6673V103.987H71.8477V108.969Z" fill="#C3C1C5"/>
<path d="M71.8477 140.746H76.607V142.797H71.8477V148.19H69.6673V142.797H64.908V140.746H69.6673V135.764H71.8477V140.746Z" fill="#C3C1C5"/>
<path d="M103.625 13.6376H108.384V15.689H103.625V21.0814H101.444V15.689H96.6849V13.6376H101.444V8.65556H103.625V13.6376Z" fill="#C3C1C5"/>
<path d="M103.625 45.4146H108.384V47.4661H103.625V52.8584H101.444V47.4661H96.6849V45.4146H101.444V40.4326H103.625V45.4146Z" fill="#C3C1C5"/>
<path d="M103.625 77.1917H108.384V79.2431H103.625V84.6354H101.444V79.2431H96.6849V77.1917H101.444V72.2096H103.625V77.1917Z" fill="#C3C1C5"/>
<path d="M103.625 108.969H108.384V111.02H103.625V116.412H101.444V111.02H96.6849V108.969H101.444V103.987H103.625V108.969Z" fill="#C3C1C5"/>
<path d="M103.625 140.746H108.384V142.797H103.625V148.19H101.444V142.797H96.6849V140.746H101.444V135.764H103.625V140.746Z" fill="#C3C1C5"/>
<path d="M135.402 13.6376H140.161V15.689H135.402V21.0814H133.222V15.689H128.462V13.6376H133.222V8.65556H135.402V13.6376Z" fill="#C3C1C5"/>
<path d="M135.402 45.4146H140.161V47.4661H135.402V52.8584H133.222V47.4661H128.462V45.4146H133.222V40.4326H135.402V45.4146Z" fill="#C3C1C5"/>
<path d="M135.402 77.1917H140.161V79.2431H135.402V84.6354H133.222V79.2431H128.462V77.1917H133.222V72.2096H135.402V77.1917Z" fill="#C3C1C5"/>
<path d="M135.402 108.969H140.161V111.02H135.402V116.412H133.222V111.02H128.462V108.969H133.222V103.987H135.402V108.969Z" fill="#C3C1C5"/>
<path d="M135.402 140.746H140.161V142.797H135.402V148.19H133.222V142.797H128.462V140.746H133.222V135.764H135.402V140.746Z" fill="#C3C1C5"/>
</svg>
