<?xml version="1.0" encoding="utf-8"?>
<svg version="1.1" id="Layer_1" xmlns="http://www.w3.org/2000/svg" xmlns:xlink="http://www.w3.org/1999/xlink" x="0px" y="0px"
	 width="125px" height="41px" viewBox="0 -3 125 41" enable-background="new 0 -3 125 41" xml:space="preserve">
<path fill="#C4C4C4" d="M12.245,2.357c-1.749,0.001-3.165,1.43-3.163,3.189c-0.001,1.76,1.416,3.188,3.165,3.189h3.164V5.548
	C15.412,3.788,13.995,2.36,12.245,2.357C12.246,2.357,12.246,2.357,12.245,2.357z M12.245,10.864H3.809
	c-1.749,0.001-3.166,1.43-3.165,3.189c-0.002,1.76,1.414,3.188,3.163,3.191h8.438c1.749-0.001,3.166-1.43,3.165-3.189
	C15.41,12.294,13.994,10.866,12.245,10.864z"/>
<path fill="#C4C4C4" d="M32.284,14.054c0.001-1.76-1.416-3.188-3.165-3.189c-1.749,0.001-3.166,1.43-3.165,3.189v3.191h3.165
	C30.868,17.243,32.285,15.815,32.284,14.054z M23.846,14.054V5.547c0.001-1.759-1.414-3.187-3.163-3.189
	c-1.749,0.001-3.166,1.43-3.165,3.189v8.507c-0.002,1.76,1.415,3.188,3.164,3.191C22.431,17.243,23.848,15.815,23.846,14.054z"/>
<path fill="#C4C4C4" d="M20.682,34.258c1.749-0.001,3.166-1.43,3.164-3.189c0.001-1.76-1.416-3.188-3.164-3.189h-3.165v3.189
	C17.516,32.828,18.933,34.256,20.682,34.258z M20.682,25.75h8.437c1.749-0.001,3.166-1.43,3.165-3.189
	c0.002-1.76-1.414-3.188-3.163-3.191h-8.438c-1.749,0.002-3.166,1.43-3.165,3.19C17.518,24.32,18.933,25.749,20.682,25.75z"/>
<path fill="#C4C4C4" d="M0.645,22.561c-0.001,1.76,1.416,3.188,3.164,3.189c1.749-0.001,3.166-1.43,3.165-3.189v-3.189H3.809
	C2.06,19.373,0.643,20.801,0.645,22.561z M9.082,22.561v8.508c-0.002,1.76,1.415,3.188,3.164,3.189
	c1.749-0.001,3.166-1.429,3.164-3.189v-8.505c0.003-1.761-1.414-3.188-3.163-3.19C10.496,19.373,9.081,20.801,9.082,22.561z"/>
<path fill="#C4C4C4" d="M41.579,24.115l2.999-1.762c1.318,1.949,3.032,2.924,5.142,2.924c1.033,0,1.846-0.199,2.439-0.598
	c0.615-0.421,0.923-0.975,0.923-1.662c0-0.553-0.253-1.041-0.758-1.461c-0.483-0.422-1-0.731-1.549-0.932
	c-0.549-0.221-1.374-0.509-2.472-0.863c-0.198-0.066-0.34-0.111-0.428-0.133c-0.791-0.266-1.461-0.521-2.011-0.765
	c-0.527-0.266-1.087-0.609-1.681-1.03c-0.593-0.443-1.044-0.985-1.352-1.628c-0.307-0.665-0.461-1.429-0.461-2.293
	c0-1.684,0.703-3.035,2.109-4.054s3.153-1.529,5.241-1.529c1.56,0,3.032,0.421,4.417,1.263c1.384,0.82,2.417,1.872,3.098,3.157
	l-2.768,1.695c-1.296-1.794-2.868-2.692-4.713-2.692c-1.011,0-1.791,0.21-2.34,0.631c-0.527,0.399-0.791,0.931-0.791,1.595
	c0,0.554,0.23,1.052,0.692,1.495c0.483,0.421,0.978,0.731,1.483,0.931s1.219,0.454,2.142,0.764c0.242,0.067,0.417,0.122,0.527,0.167
	c3.911,1.263,5.867,3.168,5.867,5.715c0,1.574-0.659,2.914-1.978,4.021c-1.296,1.086-3.142,1.629-5.537,1.629
	c-1.846,0-3.494-0.41-4.944-1.23C43.446,26.651,42.347,25.533,41.579,24.115z"/>
<path fill="#C4C4C4" d="M60.958,28.103V0.953h4.153v27.149H60.958z"/>
<path fill="#C4C4C4" d="M73.086,22.719c0,0.709,0.275,1.308,0.824,1.795c0.572,0.465,1.318,0.697,2.242,0.697
	c1.318,0,2.438-0.442,3.361-1.328c0.945-0.887,1.417-2.05,1.417-3.49v-1.761c-1.011,0.243-2.229,0.476-3.658,0.698
	C74.482,19.772,73.086,20.902,73.086,22.719z M68.867,23.085c0-3.611,2.659-5.815,7.977-6.613c1.934-0.288,3.296-0.554,4.087-0.797
	v-1.03c0-0.93-0.329-1.662-0.989-2.193c-0.658-0.532-1.537-0.797-2.637-0.797c-2.087,0-3.889,0.864-5.404,2.592l-2.538-2.193
	c0.989-1.174,2.164-2.083,3.526-2.725c1.385-0.665,2.834-0.997,4.351-0.997c2.835,0,4.856,0.698,6.064,2.094
	c1.208,1.374,1.813,3.301,1.813,5.782v11.896h-4.054V25.71c-0.396,0.819-1.088,1.528-2.076,2.127
	c-0.967,0.575-2.109,0.864-3.428,0.864c-2.088,0-3.725-0.521-4.911-1.563S68.867,24.746,68.867,23.085z"/>
<path fill="#C4C4C4" d="M88.313,18.532c0-3.08,0.813-5.55,2.438-7.411C92.4,9.261,94.521,8.33,97.113,8.33
	c1.89,0,3.482,0.576,4.779,1.728s2.109,2.47,2.438,3.955l-3.56,0.997c-0.264-0.842-0.713-1.562-1.352-2.16
	c-0.637-0.62-1.395-0.931-2.273-0.931c-1.428,0-2.549,0.631-3.361,1.895c-0.791,1.263-1.188,2.835-1.188,4.719
	c0,2.082,0.429,3.699,1.285,4.852c0.857,1.151,1.945,1.728,3.264,1.728c0.967,0,1.813-0.332,2.537-0.996
	c0.748-0.688,1.264-1.463,1.549-2.326l3.561,1.029c-0.418,1.551-1.33,2.925-2.736,4.121c-1.406,1.174-3.054,1.762-4.943,1.762
	c-2.593,0-4.713-0.92-6.361-2.759C89.127,24.082,88.313,21.611,88.313,18.532z"/>
<path fill="#C4C4C4" d="M107.924,28.103V0.953h4.152v15.618l6.757-7.643h5.24l-7.021,7.81l7.449,11.365h-4.878l-5.272-8.407
	l-2.275,2.525v5.882H107.924z"/>
</svg>
