<svg width="112" height="41" viewBox="0 0 112 41" fill="none" xmlns="http://www.w3.org/2000/svg">
<path d="M64.4332 2.29034V5.28873C64.44 5.4898 64.513 5.67966 64.6364 5.8175C64.7598 5.95535 64.9238 6.03019 65.0931 6.02595H70.9552L64.201 17.5092C63.774 18.2474 63.774 19.077 63.774 19.5383V22.5817C63.774 23.0429 64.2007 23.504 64.5889 23.2735C68.3929 20.8292 73.0122 21.0597 76.467 23.2273C76.8937 23.5037 77.2819 22.9967 77.2819 22.5355V19.3535C77.2429 18.9384 77.1266 18.4772 76.6996 18.2005C74.7591 16.9096 72.4686 16.5407 70.2948 16.5869L76.1173 6.7177C76.6608 5.79499 76.9713 5.24187 76.9713 4.82682V2.29034C76.9646 2.08915 76.8917 1.89912 76.7682 1.76112C76.6448 1.62313 76.4808 1.54819 76.3113 1.55243H65.0543C64.9715 1.54719 64.8888 1.56269 64.8115 1.59792C64.7341 1.63315 64.6639 1.68732 64.6053 1.75692C64.5467 1.82651 64.5011 1.90997 64.4715 2.00187C64.4418 2.09378 64.4288 2.19206 64.4332 2.29034Z" fill="#C4C4C4"/>
<path d="M19.9875 23.8733H23.4034C23.5711 23.8804 23.7351 23.8138 23.864 23.6862C23.9929 23.5586 24.0777 23.3789 24.1021 23.1817V12.1134C24.1021 12.0411 24.102 11.9681 24.102 11.8944C24.0997 9.47563 24.0968 6.34867 26.47 6.34867C28.6368 6.34867 28.601 9.15258 28.5723 11.3944C28.5691 11.6424 28.5661 11.8836 28.5661 12.1134V23.1817C28.5661 23.5507 28.8378 23.8734 29.1872 23.9196H32.6031C32.7725 23.9238 32.9365 23.8488 33.0599 23.7109C33.1833 23.5729 33.2562 23.3829 33.2629 23.1817V12.1134C33.2629 12.0077 33.2626 11.8977 33.2623 11.7843C33.2591 10.6109 33.2549 9.06837 33.5734 8.1012C33.7389 7.60941 34.0219 7.18584 34.3874 6.88266C34.753 6.57948 35.1852 6.40991 35.6308 6.39483C36.6401 6.39483 37.3777 6.80988 37.6493 8.19339C37.7711 8.84481 37.7495 10.3482 37.7346 11.3888C37.7305 11.6742 37.7269 11.9247 37.7269 12.1134V23.1817C37.7269 23.5507 37.9986 23.8734 38.348 23.9196H41.7255C41.8949 23.9238 42.059 23.8488 42.1824 23.7109C42.3058 23.5729 42.3786 23.3829 42.3854 23.1817V9.99208C42.3854 9.65601 42.3905 9.31381 42.3957 8.96899C42.4254 6.9952 42.4563 4.93523 41.5314 3.44345C40.5609 1.82927 39.0082 1.13752 37.5719 1.13752C35.5532 1.13752 33.6509 2.38267 32.836 5.01133C31.9043 2.38267 30.5457 1.13752 28.4108 1.13752C26.3147 1.13752 24.7229 2.38267 23.9079 5.01133H23.8303V2.29034C23.8178 2.1039 23.7472 1.9297 23.6324 1.80179C23.5175 1.67387 23.3666 1.60142 23.2092 1.59859H20.0262C19.8568 1.59439 19.6928 1.66934 19.5694 1.80734C19.446 1.94533 19.3731 2.13534 19.3664 2.33651V23.1815C19.3917 23.3619 19.4662 23.5273 19.5784 23.6523C19.6907 23.7773 19.8344 23.855 19.9875 23.8733Z" fill="#C4C4C4"/>
<path fill-rule="evenodd" clip-rule="evenodd" d="M94.5166 12.8974C94.5166 6.30265 91.7606 1.13752 86.6755 1.13752C81.7069 1.13752 78.9508 6.21032 78.9897 12.7129C78.9897 19.1694 81.7069 24.3345 86.6755 24.3345C91.4889 24.3345 94.5166 19.2617 94.5166 12.8974ZM83.9971 12.0673C83.9971 9.53087 84.1523 5.42638 86.6755 5.42638C87.7624 5.42638 88.5387 5.97964 88.9269 7.45547C89.354 9.11582 89.4316 11.2371 89.4316 12.9896C89.4316 15.6645 89.2764 20.0456 86.6368 20.0456C83.9955 20.0456 83.9966 14.7539 83.9971 12.1747L83.9971 12.0673Z" fill="#C4C4C4"/>
<path d="M97.6608 23.8733H101.077C101.249 23.8714 101.414 23.7961 101.542 23.6604C101.671 23.5247 101.754 23.3384 101.775 23.1358V11.8826C101.775 10.4529 101.853 9.2073 102.319 7.91641C102.707 6.90165 103.483 6.2562 104.298 6.2562C106.476 6.2562 106.454 9.06471 106.436 11.3096C106.435 11.5057 106.433 11.6976 106.433 11.8828V23.2274C106.472 23.5501 106.744 23.8267 107.054 23.8729H110.47C110.628 23.8812 110.783 23.8198 110.905 23.7007C111.027 23.5815 111.107 23.4129 111.13 23.2274V10.084C111.13 8.05476 111.13 5.24159 110.238 3.58138C109.267 1.78254 107.753 1.13709 106.239 1.13709C103.872 1.13709 102.552 2.47444 101.581 5.33377H101.504V2.15171C101.469 1.9851 101.39 1.83641 101.278 1.72821C101.166 1.62001 101.027 1.55819 100.883 1.55215H97.6996C97.5379 1.55361 97.3821 1.6244 97.2608 1.7515C97.1396 1.8786 97.061 2.05346 97.0397 2.2439V23.1354C97.0397 23.5044 97.3114 23.8271 97.6608 23.8733Z" fill="#C4C4C4"/>
<path fill-rule="evenodd" clip-rule="evenodd" d="M58.5264 24.0292C58.6726 24.0126 58.8108 23.942 58.9214 23.8273L58.9227 23.8271C59.1707 23.5816 59.4872 23.2604 59.8253 22.9174C60.4397 22.2941 61.1253 21.5985 61.601 21.1523C61.8727 20.9218 61.8339 20.4606 61.601 20.0917C61.5262 19.9639 61.4508 19.8395 61.3761 19.7161C60.8305 18.8156 60.3201 17.9731 60.3201 16.31V9.99195C60.3201 9.7808 60.3211 9.5708 60.322 9.36217C60.3332 6.92848 60.3436 4.68116 58.8062 2.9821C57.4864 1.46024 55.3127 0.953003 53.6436 0.953003C50.383 0.953003 46.7729 2.38267 45.9966 7.17891C45.919 7.68629 46.2296 7.91683 46.5013 8.00901L49.8007 8.42407C50.1113 8.42407 50.3054 8.05504 50.383 7.68615C50.6547 6.02581 51.8192 5.24186 53.139 5.24186C53.8372 5.24186 54.6136 5.56459 55.0405 6.30251C55.4866 7.03642 55.4776 8.02293 55.4696 8.9108C55.4685 9.02717 55.4675 9.14184 55.4675 9.25403V9.76127C55.1456 9.80626 54.8073 9.84882 54.4585 9.89272C52.6618 10.1188 50.5841 10.3802 49.0238 11.1909C46.8883 12.2979 45.3744 14.5115 45.3744 17.8319C45.3744 22.0286 47.6258 24.15 50.4984 24.15C52.905 24.15 54.2636 23.4575 56.1268 21.1985C56.2176 21.3534 56.3 21.4974 56.3782 21.634C56.8352 22.4327 57.1452 22.9743 58.1065 23.9195C58.2333 24.0073 58.3802 24.0457 58.5264 24.0292ZM55.4669 14.1597C55.4667 14.0778 55.4666 13.9952 55.4666 13.9121V13.0365C52.9823 13.0365 50.3816 13.6822 50.3816 17.141C50.3816 18.8935 51.1578 20.0925 52.4777 20.0925C53.4481 20.0925 54.3022 19.4008 54.8455 18.2478C55.4705 16.8933 55.4688 15.6222 55.4669 14.1597Z" fill="#C4C4C4"/>
<path fill-rule="evenodd" clip-rule="evenodd" d="M13.6534 24.0292C13.7996 24.0126 13.9378 23.942 14.0484 23.8273L14.0497 23.8271C14.2977 23.5816 14.6143 23.2604 14.9524 22.9174C15.5667 22.2941 16.2523 21.5985 16.7281 21.1523C16.9997 20.9218 16.961 20.4606 16.7281 20.0917C16.6532 19.9639 16.5779 19.8395 16.5031 19.7161C15.9576 18.8156 15.4471 17.9731 15.4471 16.31V9.99195C15.4471 9.78081 15.4481 9.57081 15.449 9.36218C15.4603 6.92849 15.4706 4.68116 13.9333 2.9821C12.6135 1.46024 10.4398 0.953003 8.7706 0.953003C5.51 0.953003 1.89993 2.38267 1.12363 7.17891C1.04604 7.68629 1.35665 7.91683 1.62829 8.00901L4.92775 8.42407C5.23836 8.42407 5.43241 8.05504 5.51 7.68615C5.78176 6.02581 6.94626 5.24186 8.26607 5.24186C8.96418 5.24186 9.74059 5.56459 10.1675 6.30251C10.6136 7.03642 10.6046 8.02293 10.5966 8.9108C10.5955 9.02717 10.5945 9.14184 10.5945 9.25403V9.76127C10.2726 9.80626 9.93435 9.84882 9.58548 9.89272C7.78879 10.1188 5.7111 10.3802 4.15086 11.1909C2.01532 12.2979 0.501465 14.5115 0.501465 17.8319C0.501465 22.0286 2.75287 24.15 5.62539 24.15C8.03198 24.15 9.39065 23.4575 11.2538 21.1985C11.3446 21.3534 11.427 21.4974 11.5052 21.634C11.9623 22.4327 12.2722 22.9743 13.2335 23.9195C13.3604 24.0073 13.5073 24.0457 13.6534 24.0292ZM10.6327 14.1597C10.6326 14.0778 10.6325 13.9953 10.6325 13.9121V13.0365C8.1482 13.0365 5.54744 13.6822 5.54744 17.141C5.54744 18.8935 6.32374 20.0925 7.64354 20.0925C8.614 20.0925 9.46812 19.4008 10.0114 18.2478C10.6363 16.8933 10.6347 15.6223 10.6327 14.1597Z" fill="#C4C4C4"/>
<path d="M71.808 28.2545C70.993 27.0093 66.3735 27.6549 64.3163 27.9778C63.6952 28.07 63.5787 27.4244 64.161 26.9632C67.8487 23.8733 73.8653 24.7956 74.564 25.8102C75.2627 26.8248 74.37 34.0186 70.9146 37.4318C70.3714 37.939 69.8666 37.6623 70.0997 36.9706L70.1403 36.85C70.9353 34.4909 72.6092 29.5233 71.808 28.2545Z" fill="#C4C4C4"/>
<path d="M69.1298 31.8981C62.7249 37.5247 53.4088 40.5221 45.3736 40.5221C34.1166 40.5221 24.0242 35.5875 16.3383 27.3787C15.7561 26.7332 16.2607 25.8568 16.9982 26.364C25.2662 32.0826 35.4752 35.4953 46.0335 35.4953C53.137 35.4953 60.9781 33.7429 68.1981 30.0995C69.2846 29.5923 70.1778 30.9758 69.1298 31.8981Z" fill="#C4C4C4"/>
</svg>
