<?xml version="1.0" encoding="utf-8"?>
<svg version="1.1" id="Layer_1" xmlns="http://www.w3.org/2000/svg" xmlns:xlink="http://www.w3.org/1999/xlink" x="0px" y="0px"
	 width="153px" height="41px" viewBox="17.5 0 153 41" enable-background="new 17.5 0 153 41" xml:space="preserve">
<g>
	<path id="Fill-1" fill="#C4C4C4" d="M56.555,24.545c0.25,0.399,0.576,0.7,0.976,0.938c0.4,0.225,0.851,0.4,1.363,0.488
		c0.5,0.101,1.025,0.149,1.563,0.149c0.413,0,0.851-0.024,1.301-0.086c0.463-0.063,0.875-0.163,1.264-0.325
		c0.375-0.162,0.688-0.4,0.937-0.713c0.251-0.3,0.375-0.7,0.375-1.176c0-0.662-0.263-1.162-0.776-1.5
		c-0.513-0.351-1.164-0.626-1.938-0.826c-0.775-0.212-1.614-0.399-2.526-0.575c-0.913-0.175-1.752-0.413-2.526-0.725
		c-0.776-0.3-1.426-0.738-1.939-1.301c-0.512-0.563-0.775-1.339-0.775-2.339c0-0.788,0.175-1.45,0.538-2.014
		c0.362-0.563,0.838-1.014,1.401-1.363c0.563-0.35,1.212-0.613,1.925-0.789c0.714-0.162,1.413-0.249,2.126-0.249
		c0.9,0,1.738,0.075,2.501,0.224c0.776,0.151,1.451,0.413,2.04,0.775c0.587,0.375,1.05,0.876,1.413,1.501
		c0.35,0.638,0.55,1.413,0.613,2.364h-2.638c-0.039-0.5-0.176-0.925-0.401-1.25c-0.225-0.325-0.512-0.587-0.862-0.799
		c-0.351-0.201-0.738-0.338-1.163-0.426c-0.426-0.099-0.851-0.137-1.289-0.137c-0.4,0-0.788,0.025-1.2,0.088
		c-0.401,0.063-0.764,0.163-1.101,0.312c-0.326,0.151-0.6,0.35-0.8,0.601c-0.212,0.25-0.312,0.575-0.312,0.975
		c0,0.439,0.163,0.814,0.488,1.102c0.313,0.287,0.725,0.525,1.226,0.712c0.487,0.201,1.05,0.364,1.663,0.488
		c0.625,0.125,1.251,0.262,1.864,0.4c0.664,0.15,1.313,0.313,1.938,0.513c0.625,0.199,1.188,0.463,1.676,0.799
		c0.489,0.326,0.875,0.738,1.175,1.238c0.3,0.5,0.451,1.126,0.451,1.863c0,0.951-0.201,1.726-0.6,2.339
		c-0.4,0.625-0.938,1.125-1.589,1.514c-0.65,0.375-1.375,0.637-2.2,0.787c-0.813,0.15-1.626,0.225-2.427,0.225
		c-0.888,0-1.738-0.088-2.551-0.262c-0.8-0.188-1.513-0.476-2.139-0.889c-0.613-0.412-1.113-0.95-1.488-1.625
		c-0.363-0.675-0.575-1.488-0.613-2.451h2.626C56.167,23.684,56.305,24.157,56.555,24.545"/>
	<path id="Fill-2" fill="#C4C4C4" d="M70.199,12.502h2.627v15.521h-2.627V12.502z"/>
	<path id="Fill-3" fill="#C4C4C4" d="M83.781,12.502v2.251H80.58v9.629c0,0.301,0.024,0.537,0.075,0.726
		c0.05,0.176,0.151,0.326,0.3,0.426c0.15,0.101,0.35,0.163,0.6,0.188c0.262,0.024,0.6,0.051,1.014,0.051h1.212v2.251h-2.026
		c-0.675,0-1.263-0.05-1.751-0.138c-0.488-0.087-0.875-0.251-1.175-0.5c-0.301-0.237-0.525-0.575-0.664-1.013
		c-0.15-0.438-0.225-1.026-0.225-1.751v-9.868h-2.726v-2.251h2.726V7.838h2.639v4.665L83.781,12.502"/>
	<path id="Fill-4" fill="#C4C4C4" d="M98.038,27.022c-1.2,0.887-2.713,1.324-4.527,1.324c-1.276,0-2.389-0.199-3.327-0.6
		c-0.95-0.399-1.738-0.963-2.376-1.676c-0.638-0.726-1.125-1.588-1.438-2.589c-0.325-1.001-0.5-2.089-0.55-3.264
		c0-1.189,0.187-2.264,0.563-3.252c0.375-0.975,0.887-1.825,1.563-2.551c0.676-0.713,1.463-1.275,2.389-1.676
		c0.926-0.401,1.926-0.6,3.026-0.6c1.426,0,2.602,0.274,3.553,0.851c0.938,0.575,1.688,1.301,2.264,2.176
		c0.562,0.887,0.949,1.851,1.176,2.889c0.213,1.038,0.301,2.026,0.262,2.964H88.61c-0.013,0.688,0.062,1.325,0.25,1.938
		c0.188,0.612,0.488,1.15,0.901,1.625c0.413,0.476,0.938,0.851,1.588,1.126c0.638,0.275,1.389,0.412,2.252,0.412
		c1.126,0,2.037-0.236,2.75-0.75c0.714-0.488,1.188-1.25,1.414-2.275h2.602C100.014,24.832,99.24,26.146,98.038,27.022
		L98.038,27.022z M97.401,17.053c-0.238-0.537-0.551-1-0.964-1.388c-0.399-0.387-0.875-0.701-1.426-0.938
		c-0.538-0.225-1.15-0.338-1.813-0.338c-0.676,0-1.301,0.113-1.839,0.338c-0.55,0.238-1.025,0.55-1.413,0.95
		c-0.387,0.4-0.7,0.863-0.925,1.4c-0.238,0.526-0.363,1.089-0.413,1.689h9.217C97.776,18.167,97.639,17.604,97.401,17.053
		L97.401,17.053z"/>
	<path id="Fill-5" fill="#C4C4C4" d="M106.067,12.502v2.102h0.063c0.438-0.864,1.112-1.489,2.051-1.875
		c0.926-0.401,1.952-0.587,3.064-0.587c1.25,0,2.325,0.212,3.238,0.662c0.926,0.438,1.688,1.026,2.302,1.776
		s1.063,1.625,1.376,2.601c0.313,0.988,0.463,2.026,0.463,3.127c0,1.099-0.15,2.138-0.452,3.114c-0.3,0.988-0.75,1.839-1.362,2.576
		c-0.599,0.726-1.376,1.301-2.289,1.726c-0.924,0.413-1.988,0.625-3.213,0.625c-0.39,0-0.827-0.037-1.313-0.112
		c-0.488-0.087-0.964-0.212-1.438-0.399c-0.476-0.176-0.926-0.426-1.352-0.737c-0.425-0.301-0.787-0.688-1.074-1.15h-0.063v7.99
		h-2.64V12.502H106.067L106.067,12.502z M115.547,18.004c-0.199-0.688-0.5-1.301-0.9-1.852c-0.4-0.538-0.926-0.963-1.55-1.288
		c-0.639-0.313-1.376-0.476-2.227-0.476c-0.889,0-1.639,0.163-2.265,0.512c-0.613,0.338-1.125,0.789-1.513,1.326
		c-0.39,0.563-0.676,1.188-0.851,1.875c-0.176,0.713-0.263,1.413-0.263,2.139c0,0.763,0.087,1.502,0.275,2.201
		c0.187,0.713,0.476,1.338,0.887,1.876c0.401,0.551,0.926,0.975,1.564,1.313c0.637,0.325,1.412,0.487,2.325,0.487
		c0.915,0,1.663-0.161,2.276-0.499c0.612-0.338,1.102-0.788,1.477-1.352c0.376-0.562,0.638-1.2,0.799-1.925
		c0.176-0.726,0.253-1.463,0.253-2.226C115.836,19.404,115.735,18.692,115.547,18.004L115.547,18.004z"/>
	<path id="Fill-6" fill="#C4C4C4" d="M121.35,17.079c0.337-1,0.838-1.851,1.488-2.589c0.663-0.725,1.488-1.3,2.464-1.725
		c0.964-0.414,2.076-0.625,3.339-0.625c1.29,0,2.402,0.212,3.364,0.625c0.964,0.425,1.776,1,2.439,1.725
		c0.664,0.738,1.15,1.589,1.487,2.589c0.325,0.988,0.501,2.051,0.501,3.19c0,1.15-0.176,2.202-0.501,3.189
		c-0.337,0.976-0.825,1.837-1.487,2.563c-0.663,0.737-1.477,1.301-2.439,1.714c-0.962,0.414-2.074,0.613-3.364,0.613
		c-1.263,0-2.375-0.199-3.339-0.613c-0.976-0.413-1.801-0.975-2.464-1.714c-0.65-0.727-1.151-1.588-1.488-2.563
		c-0.325-0.987-0.488-2.039-0.488-3.189C120.863,19.13,121.024,18.067,121.35,17.079L121.35,17.079z M124.039,22.781
		c0.262,0.726,0.613,1.339,1.076,1.826c0.45,0.487,0.975,0.863,1.588,1.125c0.613,0.263,1.263,0.388,1.938,0.388
		c0.688,0,1.326-0.124,1.939-0.388c0.612-0.262,1.138-0.638,1.601-1.125c0.45-0.488,0.813-1.102,1.063-1.826
		c0.263-0.737,0.388-1.563,0.388-2.514c0-0.938-0.125-1.775-0.388-2.501c-0.251-0.726-0.613-1.351-1.063-1.852
		c-0.463-0.5-0.988-0.875-1.601-1.138c-0.613-0.263-1.252-0.388-1.939-0.388c-0.675,0-1.324,0.124-1.938,0.388
		c-0.613,0.263-1.14,0.638-1.588,1.138c-0.463,0.5-0.814,1.125-1.076,1.852c-0.262,0.726-0.388,1.563-0.388,2.501
		C123.651,21.218,123.776,22.044,124.039,22.781L124.039,22.781z"/>
	<path id="Fill-7" fill="#C4C4C4" d="M139.684,12.502h2.639v15.521h-2.639V12.502z"/>
	<path id="Fill-8" fill="#C4C4C4" d="M148.89,12.502v2.452h0.063c1.1-1.876,2.839-2.813,5.214-2.813
		c1.051,0,1.927,0.137,2.628,0.412c0.711,0.288,1.276,0.676,1.714,1.176c0.438,0.5,0.737,1.1,0.913,1.788
		c0.175,0.688,0.262,1.45,0.262,2.289v10.217h-2.639V17.505c0-0.95-0.289-1.714-0.865-2.276c-0.574-0.563-1.376-0.838-2.388-0.838
		c-0.813,0-1.502,0.112-2.1,0.362c-0.59,0.238-1.076,0.575-1.464,1.013c-0.4,0.438-0.688,0.963-0.89,1.55
		c-0.199,0.587-0.287,1.239-0.287,1.938v8.768h-2.638V12.502H148.89"/>
	<path id="Fill-9" fill="#C4C4C4" d="M170.5,12.502v2.251h-3.188v9.629c0,0.301,0.023,0.537,0.075,0.726
		c0.051,0.176,0.149,0.326,0.3,0.426c0.138,0.101,0.337,0.163,0.601,0.188c0.262,0.024,0.6,0.051,1,0.051h1.213v2.251h-2.014
		c-0.675,0-1.263-0.05-1.751-0.138c-0.488-0.087-0.875-0.251-1.175-0.5c-0.3-0.237-0.525-0.575-0.664-1.013
		c-0.149-0.438-0.225-1.026-0.225-1.751v-9.868h-2.727v-2.251h2.727V7.838h2.638v4.665L170.5,12.502"/>
	<path id="Fill-10" fill="#C4C4C4" d="M18.173,18.442l2.438,2.364l7.679,7.179l3.315-3.201c0.3-0.414,0.288-0.976-0.063-1.377
		l-3.027-2.652h0.013l-3.264-3.163c-0.375-0.439-0.375-1.089,0.037-1.5l8.768-8.48l-3.977-3.864L18.186,15.24
		C17.273,16.129,17.273,17.567,18.173,18.442"/>
	<path id="Fill-11" fill="#C4C4C4" d="M44.349,22.545l-2.426-2.352l-7.691-7.179l-3.314,3.188c-0.3,0.426-0.276,0.988,0.063,1.389
		l3.028,2.652l0,0l3.251,3.164c0.388,0.438,0.375,1.075-0.025,1.5l-8.779,8.48l3.989,3.864l9.468-9.142l2.438-2.365
		C45.263,24.871,45.263,23.432,44.349,22.545"/>
	<path id="Fill-12" fill="#C4C4C4" d="M73.051,9.325c0,0.825-0.688,1.487-1.538,1.487c-0.851,0-1.54-0.662-1.54-1.487
		c0-0.814,0.689-1.488,1.54-1.488C72.363,7.837,73.051,8.511,73.051,9.325"/>
	<path id="Fill-13" fill="#C4C4C4" d="M142.536,9.325c0,0.825-0.688,1.487-1.539,1.487s-1.538-0.662-1.538-1.487
		c0-0.814,0.688-1.488,1.538-1.488S142.536,8.511,142.536,9.325"/>
</g>
</svg>
