<?xml version="1.0" encoding="utf-8"?>
<svg version="1.1" id="Layer_1" xmlns="http://www.w3.org/2000/svg" xmlns:xlink="http://www.w3.org/1999/xlink" x="0px" y="0px"
	 width="176px" height="41px" viewBox="20 0 176 41" enable-background="new 20 0 176 41" xml:space="preserve">
<g>
	<path fill="#C4C4C4" d="M140.65,19.65c-1.498-1.49-3.533-2.311-5.647-2.268c-5.521,0.06-8.527,5.032-8.527,9.813
		c0,6.447,4.355,9.883,8.406,9.883c2.219,0.068,4.354-0.854,5.829-2.518v2.088h5.707V8.666h-5.768V19.65L140.65,19.65z
		 M136.599,31.74c-2.438,0.035-4.446-1.92-4.481-4.354c0-0.063,0-0.127,0.001-0.191c-0.001-2.438,1.978-4.42,4.415-4.42
		c2.441,0,4.421,1.973,4.422,4.416c0,0.002,0,0.002,0,0.004c0.101,2.406-1.765,4.438-4.166,4.541
		C136.726,31.74,136.661,31.74,136.599,31.74z"/>
	<path fill="#C4C4C4" d="M79.592,26.832c-1.133-0.537-2.487-0.057-3.023,1.082c-0.04,0.084-0.076,0.172-0.105,0.264
		c-1.289,3.072-5.646,5.096-8.407,3.01c2.578-1.535,5.155-3.623,6.566-6.809c1.412-3.195,0.245-10.253-6.258-9.147
		c-3.498,0.612-9.083,5.095-7.61,13.254c-4.664,0.98-3.866-5.711-1.841-14.973c0.613-2.699,0.858-4.725-1.042-6.26
		c-1.903-1.533-3.622-0.368-5.034,0.86c-3.129,2.701-6.995,7.73-9.02,10.43c0.859-5.153,2.209-11.719,1.166-13.437
		c-1.043-1.718-2.946-1.718-4.725-0.552C36.27,7.806,29.213,17.563,29.213,17.563c0.205-0.786,0.349-1.586,0.43-2.392
		c0.228-1.299-0.613-2.547-1.902-2.824c-1.387-0.353-2.802,0.464-3.19,1.842c-1.596,7.67-2.883,11.723-4.48,19.453
		c-0.319,1.379,0.485,2.777,1.842,3.188c0.662,0.164,1.361,0.08,1.963-0.242c0.502-0.352,0.888-0.844,1.104-1.412
		c2.884-7.361,10.002-17.429,14.789-22.829c0.072-0.072,0.188-0.072,0.26-0.002c0.049,0.048,0.067,0.122,0.047,0.188
		c-0.552,3.191-2.087,10.984-2.147,12.087c-0.062,1.102,0.061,2.514,1.411,3.004c1.35,0.492,2.516,0.252,4.112-1.102
		c1.595-1.352,7.241-8.345,9.082-10.614c0.184-0.185,0.491-0.185,0.368,0.246c-3.805,12.579,0.798,19.635,9.941,17.12
		c6.321,7.115,15.525,2.395,17.734-3.195C81.064,28.795,80.819,27.385,79.592,26.832z M69.591,20.082
		c1.656,0.86,0.552,5.028-4.173,7.114C65.233,22.906,67.872,19.219,69.591,20.082z"/>
	<rect x="149.916" y="18.483" fill="#C4C4C4" width="6.013" height="18.25"/>
	<path fill="#C4C4C4" d="M117.764,17.442c-2.825,0-4.115,0.921-5.59,2.575v-2.145h-5.768v18.899h5.833v-10.43
		c0-2.52,1.166-3.992,3.128-3.992c1.964,0,3.006,1.287,3.006,3.682v10.74h5.95V24.559C124.324,20.201,121.81,17.442,117.764,17.442z
		"/>
	<path fill="#C4C4C4" d="M97.266,27.195c0,2.582-1.535,4.418-4.112,4.418s-3.927-1.596-3.927-4.418V8.604H83.09v18.349
		c0,6.934,4.295,10.186,10.063,10.186c7.67,0,10.188-5.217,10.188-10.186V8.604h-6.075V27.195z"/>
	<path fill="#C4C4C4" d="M152.924,8.604c1.965,0,3.558,1.592,3.558,3.558c0,1.966-1.592,3.561-3.558,3.561
		c-1.968,0-3.562-1.595-3.562-3.561C149.362,10.196,150.958,8.604,152.924,8.604z"/>
	<path fill="#C4C4C4" d="M168.508,17.317c-5.387-0.101-9.837,4.181-9.939,9.572c-0.003,0.121-0.003,0.242,0,0.371
		c0,6.443,4.786,10.002,9.939,10.002c5.155,0,8.285-3.316,9.451-6.014h-6.138c-0.83,0.906-2.021,1.402-3.249,1.348
		c-2.241,0.098-4.207-1.475-4.604-3.68h14.545v-1.594C178.513,21.492,174.216,17.317,168.508,17.317z M164.153,24.99
		c0.664-1.889,2.477-3.131,4.479-3.066c2.454,0,3.865,1.283,4.417,3.066H164.153z"/>
	<path fill="#C4C4C4" d="M186.428,23.947c-0.333-0.127-0.55-0.449-0.553-0.801c0-0.67,0.491-1.414,1.963-1.414
		s2.026,0.982,2.085,1.475h5.831c-0.067-1.652-0.852-3.201-2.146-4.233c-1.413-1.104-3.376-1.657-5.77-1.657
		s-5.83,1.045-7.181,3.624c-0.373,0.719-0.563,1.516-0.552,2.325c-0.043,0.881,0.149,1.744,0.552,2.521
		c0.742,1.281,1.953,2.229,3.376,2.641c3.13,1.102,6.198,0.797,6.198,2.332c0,1.533-0.98,1.594-2.146,1.594
		c-1.168,0-1.781-0.184-2.09-1.104h-6.012c0.429,3.678,2.576,4.721,4.356,5.338c1.207,0.395,2.471,0.582,3.743,0.551
		c1.188,0.027,2.373-0.158,3.499-0.551c1.963-0.738,4.417-2.395,4.417-5.891c0.015-0.865-0.153-1.725-0.491-2.52
		c-0.595-1.195-1.628-2.119-2.885-2.578C191.029,24.99,187.838,24.619,186.428,23.947z"/>
</g>
</svg>
