<svg width="166" height="41" viewBox="0 0 166 41" fill="none" xmlns="http://www.w3.org/2000/svg">
<path d="M47.4804 22.3951C48.3268 21.4983 48.8987 20.1666 49.2189 18.373C49.3104 17.7479 49.379 17.0685 49.379 16.3619C49.379 15.5738 49.2418 14.7313 48.9673 13.8889C48.6242 12.829 48.1667 12.2583 47.6177 12.1224C46.7942 11.9322 45.9936 12.4757 45.2387 13.8073C44.6211 14.8401 44.2322 15.9271 44.0264 17.0413C43.912 17.6664 43.8663 18.3458 43.8663 19.0252C43.8663 19.8133 44.0035 20.6558 44.278 21.4983C44.6211 22.5581 45.0786 23.1289 45.6276 23.2647C46.1995 23.4006 46.8171 23.1017 47.4804 22.3951Z" fill="#C4C4C4"/>
<path d="M34.877 18.373C34.5567 20.1666 33.9849 21.4983 33.1385 22.3951C32.4752 23.1017 31.8576 23.4006 31.2857 23.2647C30.7367 23.1289 30.2792 22.5581 29.9361 21.4983C29.6616 20.6558 29.5243 19.8133 29.5243 19.0252C29.5243 18.3458 29.5701 17.6664 29.6845 17.0413C29.8903 15.9271 30.2792 14.8401 30.8968 13.8073C31.6517 12.4757 32.4523 11.9322 33.2758 12.1224C33.8248 12.2583 34.2822 12.829 34.6254 13.8889C34.8999 14.7313 35.0371 15.5738 35.0371 16.3619C35.0371 17.0685 34.9914 17.7479 34.877 18.373Z" fill="#C4C4C4"/>
<path fill-rule="evenodd" clip-rule="evenodd" d="M5.32306 0.953003H50.8663C53.7485 0.953003 56.0817 3.72499 56.0817 7.14922V27.8033C56.0817 31.2275 53.7485 33.9995 50.8663 33.9995H34.5338L36.7756 40.5219L26.9166 33.9995H5.34593C2.46374 33.9995 0.130538 31.2275 0.130538 27.8033V7.14922C0.107663 3.75217 2.44087 0.953003 5.32306 0.953003ZM2.92126 6.57838C3.24151 6.06203 3.72187 5.79026 4.36236 5.73591C5.52896 5.6272 6.19232 6.27944 6.35244 7.69261C7.06155 13.3725 7.83929 18.1827 8.66277 22.1233L13.6723 10.7907C14.1298 9.75802 14.7016 9.21449 15.3879 9.16014C16.3944 9.07861 17.012 9.83954 17.2636 11.443C17.8355 15.0574 18.5674 18.1284 19.4367 20.7373C20.0314 13.8345 21.0379 8.8612 22.4561 5.79026C22.7992 5.02932 23.3025 4.64886 23.9658 4.5945C24.4919 4.54015 24.9723 4.73038 25.4069 5.13803C25.8415 5.54568 26.0703 6.06202 26.116 6.68708C26.1389 7.17626 26.0703 7.58391 25.8873 7.99155C24.9952 9.94826 24.2632 13.2366 23.6685 17.8022C23.0966 22.232 22.8907 25.6834 23.028 28.1564C23.0737 28.8359 22.9822 29.4337 22.7535 29.9501C22.479 30.548 22.0672 30.8741 21.5411 30.9284C20.9464 30.9828 20.3288 30.6567 19.734 29.9229C17.6067 27.3412 15.914 23.4821 14.6788 18.3458C13.1919 21.8243 12.094 24.4333 11.3848 26.1726C10.0352 29.2435 8.89152 30.8197 7.93079 30.9013C7.31317 30.9556 6.78706 30.3306 6.32957 29.0261C5.16297 25.466 3.90487 18.5904 2.55527 8.3992C2.48665 7.69261 2.60102 7.06755 2.92126 6.57838ZM52.1011 10.8451C51.2776 9.13301 50.0653 8.1003 48.4412 7.69265C48.0065 7.58395 47.5948 7.52959 47.2059 7.52959C45.01 7.52959 43.2258 8.88841 41.8304 11.6061C40.6409 13.9161 40.0462 16.4706 40.0462 19.2698C40.0462 21.3624 40.4122 23.156 41.1442 24.6507C41.9677 26.3629 43.18 27.3956 44.8041 27.8032C45.2387 27.9119 45.6505 27.9663 46.0393 27.9663C48.2582 27.9663 50.0424 26.6074 51.4149 23.8898C52.6043 21.5526 53.1991 18.998 53.1991 16.1989C53.1991 14.0791 52.8331 12.3126 52.1011 10.8451ZM34.0993 7.69265C35.7005 8.1003 36.9357 9.13301 37.7592 10.8451C38.4912 12.3126 38.8572 14.0791 38.8572 16.1989C38.8572 18.998 38.2624 21.5526 37.0729 23.8898C35.7005 26.6074 33.9163 27.9663 31.6974 27.9663C31.3086 27.9663 30.8968 27.9119 30.4622 27.8032C28.8381 27.3956 27.6258 26.3629 26.8023 24.6507C26.0703 23.156 25.7043 21.3624 25.7043 19.2698C25.7043 16.4706 26.299 13.9161 27.4885 11.6061C28.8839 8.88841 30.6681 7.52959 32.864 7.52959C33.2529 7.52959 33.6646 7.58395 34.0993 7.69265Z" fill="#C4C4C4"/>
<path d="M59.5814 17.4493C59.5814 14.6774 60.3363 12.3945 61.8689 10.6009C63.4015 8.80725 65.3229 7.91042 67.6562 7.9376C68.5483 7.9376 69.3946 8.04631 70.1495 8.2909V12.6935C69.326 12.4217 68.5711 12.2858 67.862 12.2858C66.764 12.2858 65.8719 12.775 65.14 13.7805C64.4308 14.7589 64.0648 16.0362 64.0648 17.5852C64.0648 19.243 64.4308 20.5475 65.1628 21.5258C65.8948 22.477 66.8555 22.9662 68.0679 22.9662C68.6626 22.9662 69.3489 22.8303 70.1495 22.5585V26.9611C69.2802 27.26 68.4796 27.3959 67.7705 27.3959C65.3229 27.3959 63.3557 26.4719 61.846 24.6511C60.3363 22.8303 59.5814 20.4116 59.5814 17.4493Z" fill="#C4C4C4"/>
<path fill-rule="evenodd" clip-rule="evenodd" d="M72.8029 10.4107C73.9924 8.75289 75.6394 7.91042 77.7438 7.91042C79.9855 7.91042 81.7011 8.75289 82.9135 10.4107C84.1029 12.0956 84.6977 14.4871 84.6977 17.5852C84.6977 20.6833 84.1029 23.102 82.9363 24.8142C81.7697 26.5263 80.0999 27.3959 77.9268 27.3959C75.6851 27.3959 73.9695 26.5263 72.8029 24.8142C71.6363 23.102 71.0416 20.629 71.0416 17.395C71.0416 14.4056 71.6134 12.0684 72.8029 10.4107ZM77.7438 23.1836C78.5215 23.1836 79.1392 22.8031 79.5509 22.0422C79.9626 21.2812 80.1914 19.7593 80.2143 17.5309C80.2143 13.9164 79.3908 12.1228 77.7896 12.1228C76.257 12.1228 75.5021 13.8892 75.5021 17.4493C75.5021 19.7593 75.6851 21.2812 76.074 22.0422C76.4628 22.8031 77.0118 23.1836 77.7438 23.1836Z" fill="#C4C4C4"/>
<path d="M95.1742 12.5848L95.9977 8.42678H101.442L103.546 26.9339H99.3831L98.2623 14.2154L95.6546 26.9339H92.8181L90.0961 14.1882L89.0209 26.9339H85.0408L87.0309 8.42678H92.3378C93.0926 12.4217 93.6874 15.8459 94.122 18.7266L94.5795 15.8459C94.7625 14.7317 94.9683 13.6446 95.1742 12.5848Z" fill="#C4C4C4"/>
<path d="M114.229 12.5848L115.052 8.42678H120.473L122.578 26.9339H118.415L117.294 14.2154L114.709 26.9339H111.873L109.151 14.1882L108.075 26.9339H104.095L106.085 8.42678H111.392C112.147 12.4217 112.742 15.8459 113.176 18.7266L113.634 15.8459C113.817 14.7317 114.023 13.6446 114.229 12.5848Z" fill="#C4C4C4"/>
<path d="M131.728 19.6235H127.999V23.0205H132.322V26.9611H123.79V8.45395H132.3V12.3945H127.999V15.7916H131.728V19.6235Z" fill="#C4C4C4"/>
<path fill-rule="evenodd" clip-rule="evenodd" d="M144.835 14.0795C144.835 14.9763 144.606 15.8459 144.171 16.6884C143.737 17.5309 143.096 18.1559 142.296 18.5908L145.658 26.9339H141.221L137.812 18.5092H137.744V26.9339H133.535V8.42678H138.43C140.397 8.42678 141.975 8.94313 143.119 9.94865C144.263 10.9542 144.835 12.3402 144.835 14.0795ZM137.721 11.9869V16.3895C139.574 16.3623 140.512 15.7101 140.512 14.4328C140.512 13.5631 140.306 12.9652 139.871 12.5848C139.436 12.2043 138.727 12.0141 137.721 11.9869Z" fill="#C4C4C4"/>
<path d="M145.018 17.4493C145.018 14.6774 145.773 12.3945 147.305 10.6009C148.838 8.80725 150.782 7.91042 153.093 7.9376C153.985 7.9376 154.831 8.04631 155.586 8.2909V12.6935C154.762 12.4217 154.007 12.2858 153.298 12.2858C152.2 12.2858 151.308 12.775 150.576 13.7805C149.867 14.7589 149.501 16.0362 149.501 17.5852C149.501 19.243 149.867 20.5475 150.599 21.5258C151.331 22.477 152.292 22.9662 153.504 22.9662C154.099 22.9662 154.785 22.8303 155.586 22.5585V26.9611C154.717 27.26 153.916 27.3959 153.207 27.3959C150.759 27.3959 148.792 26.4719 147.282 24.6511C145.773 22.8303 145.018 20.4116 145.018 17.4493Z" fill="#C4C4C4"/>
<path d="M160.961 19.5963V22.9933H165.307V26.9339H156.775V8.42678H165.285V12.3674H160.961V15.7644H164.69V19.5963H160.961Z" fill="#C4C4C4"/>
</svg>
