<svg width="82" height="27" viewBox="0 0 82 27" fill="none" xmlns="http://www.w3.org/2000/svg">
<g clip-path="url(#clip0_431_64)">
<path d="M23.8349 18.7857C23.7083 18.4796 23.5896 18.1579 23.4629 17.8832L22.8773 16.5727L22.8536 16.5492C21.1127 12.7824 19.253 8.95281 17.2826 5.18603L17.2034 5.02908C17.0056 4.66025 16.8078 4.25218 16.602 3.87551C16.3488 3.4282 16.1035 2.94951 15.6999 2.49435C15.3065 2.01812 14.8114 1.63442 14.2503 1.37095C13.6892 1.10749 13.0762 0.970825 12.4554 0.970825C11.8346 0.970825 11.2215 1.10749 10.6605 1.37095C10.0994 1.63442 9.60429 2.01812 9.2109 2.49435C8.83897 2.94951 8.562 3.4282 8.30877 3.87551C8.11094 4.28357 7.9131 4.68379 7.70735 5.05263L7.62822 5.20958C5.68944 8.97636 3.79813 12.8059 2.05718 16.5727L2.0097 16.6198C1.83561 17.0278 1.62986 17.4516 1.43202 17.9068C1.30541 18.1814 1.17879 18.4796 1.05218 18.8092C0.710347 19.6723 0.601189 20.6088 0.735464 21.5264C0.869739 22.444 1.24281 23.3111 1.81792 24.0422C2.39302 24.7733 3.15031 25.3432 4.01514 25.6957C4.87997 26.0482 5.8225 26.1712 6.74983 26.0524C7.63888 25.9364 8.49495 25.6427 9.26629 25.1892C10.295 24.6163 11.2842 23.7845 12.3921 22.5839C13.5 23.7845 14.5129 24.6163 15.5179 25.1971C16.4844 25.7596 17.5788 26.0701 18.6991 26.0995C19.9964 26.1049 21.2518 25.6446 22.2336 24.8037C23.2154 23.9628 23.8572 22.798 24.0406 21.5244C24.2526 20.6093 24.1809 19.6519 23.8349 18.7778V18.7857ZM12.4712 20.0884C11.1101 18.3619 10.2238 16.7767 9.92311 15.4191C9.79852 14.916 9.77166 14.3941 9.84397 13.881C9.89937 13.4808 10.0497 13.1277 10.2555 12.8295C10.7303 12.1467 11.5612 11.723 12.4712 11.723C12.9034 11.7099 13.3321 11.8034 13.7188 11.9952C14.1056 12.1869 14.4382 12.4709 14.687 12.8216C14.8927 13.1355 15.0431 13.4808 15.0906 13.881C15.1697 14.3362 15.138 14.8619 15.0114 15.4191C14.7107 16.7532 13.8244 18.3541 12.4712 20.0884ZM22.5529 21.2498C22.463 21.8964 22.2038 22.5083 21.8012 23.0246C21.3985 23.541 20.8665 23.9436 20.258 24.1926C19.6566 24.4437 18.9919 24.5143 18.343 24.4437C17.7099 24.3652 17.0768 24.1612 16.4279 23.7845C15.3505 23.1241 14.3817 22.3037 13.5554 21.3518C15.2172 19.3115 16.2222 17.4516 16.602 15.7958C16.784 15.0111 16.8078 14.3048 16.7286 13.6534C16.6298 13.0361 16.3977 12.4472 16.0481 11.927C15.6489 11.363 15.1162 10.9048 14.4966 10.5928C13.877 10.2809 13.1897 10.1246 12.495 10.1378C11.031 10.1378 9.72527 10.8127 8.93393 11.9192C8.5777 12.438 8.34747 13.0316 8.26129 13.6534C8.15842 14.3126 8.18216 15.0424 8.38791 15.7958C8.76775 17.4516 9.79649 19.335 11.4346 21.3675C10.6222 22.3376 9.65117 23.1652 8.562 23.8159C7.90519 24.1926 7.28003 24.3888 6.64696 24.4672C5.66244 24.5923 4.66793 24.327 3.87961 23.7289C3.09128 23.1308 2.57286 22.2484 2.43703 21.2733C2.35789 20.6455 2.41329 20.0177 2.66651 19.3115C2.74565 19.0603 2.86435 18.8092 2.99096 18.511C3.16506 18.103 3.37081 17.6792 3.56864 17.2554L3.6003 17.2005C5.30959 13.4573 7.17716 9.63554 9.11594 5.8923L9.19507 5.73535C9.39291 5.35868 9.59074 4.95846 9.79649 4.58178C10.0022 4.18156 10.2238 3.79703 10.5087 3.48313C10.7553 3.19122 11.0634 2.95647 11.4114 2.7954C11.7593 2.63432 12.1387 2.55085 12.5227 2.55085C12.9067 2.55085 13.286 2.63432 13.634 2.7954C13.9819 2.95647 14.29 3.19122 14.5366 3.48313C14.8136 3.79703 15.0431 4.18156 15.2488 4.58178C15.4467 4.95846 15.6445 5.36652 15.8502 5.73535L15.9294 5.8923C17.8603 9.63554 19.7278 13.4573 21.4688 17.2005L21.4925 17.224C21.6983 17.6321 21.8723 18.0873 22.0702 18.4796C22.1968 18.7857 22.3234 19.029 22.4025 19.2879C22.5529 19.9942 22.632 20.622 22.5529 21.2498ZM33.5684 19.9157C32.9721 19.9244 32.3814 19.7998 31.8403 19.5512C31.2992 19.3026 30.8215 18.9363 30.4426 18.4796C29.5911 17.5065 29.1393 16.2518 29.1764 14.964C29.1634 13.6481 29.6299 12.3718 30.49 11.3698C30.8879 10.9073 31.3832 10.5369 31.9411 10.2847C32.4989 10.0326 33.1057 9.90471 33.7187 9.9102C34.2955 9.89455 34.8669 10.0246 35.3791 10.2882C35.8913 10.5518 36.3275 10.9402 36.6467 11.4169L36.7258 10.1849H39.0365V19.6646H36.7179L36.6388 18.2834C36.3097 18.7925 35.8549 19.2096 35.3175 19.4953C34.7801 19.781 34.178 19.9257 33.5684 19.9157ZM34.1698 17.6556C34.6288 17.6556 35.0323 17.5301 35.4122 17.3025C35.7604 17.0514 36.0453 16.7218 36.2668 16.3216C36.4647 15.9214 36.5675 15.4427 36.5675 14.909C36.5984 14.4456 36.5074 13.9821 36.3035 13.5639C36.0996 13.1458 35.7898 12.7872 35.4043 12.5234C35.0339 12.2945 34.6062 12.1732 34.1698 12.1732C33.7334 12.1732 33.3057 12.2945 32.9353 12.5234C32.5871 12.7745 32.3022 13.1041 32.0806 13.5043C31.8714 13.9457 31.7684 14.4293 31.7799 14.9169C31.7491 15.3804 31.8401 15.8438 32.044 16.262C32.2479 16.6802 32.5577 17.0387 32.9432 17.3025C33.3151 17.5301 33.7187 17.6556 34.1698 17.6556ZM42.9932 7.62659C42.9932 7.90125 42.9457 8.15237 42.8191 8.35641C42.6925 8.55259 42.5184 8.73308 42.2889 8.85864C42.0594 8.9842 41.8141 9.03129 41.5609 9.03129C41.3077 9.03129 41.0544 8.9842 40.8249 8.85864C40.6079 8.73882 40.4254 8.56593 40.2948 8.35641C40.1722 8.13286 40.1121 7.8809 40.1207 7.62659C40.1207 7.34408 40.176 7.09297 40.2948 6.89678C40.4214 6.66136 40.6034 6.5201 40.8249 6.39454C41.0544 6.26898 41.2998 6.21405 41.5609 6.21405C41.8128 6.20829 42.0619 6.26745 42.2838 6.38575C42.5057 6.50404 42.6929 6.67742 42.827 6.88893C42.9422 7.11772 42.9993 7.37095 42.9932 7.62659ZM40.3027 19.6332V10.1692H42.8191V19.6489H40.2948L40.3027 19.6332ZM49.5455 12.649V12.6804C49.4268 12.6254 49.2686 12.6019 49.1498 12.5783C48.9916 12.547 48.865 12.5469 48.7146 12.5469C48.0103 12.5469 47.4801 12.751 47.1319 13.1747C46.7521 13.6064 46.578 14.2106 46.578 14.9875V19.6411H44.0536V10.1613H46.3722L46.4514 11.5974C46.7046 11.0952 47.0053 10.7185 47.4326 10.436C47.8577 10.1615 48.3581 10.0244 48.865 10.0436C49.047 10.0436 49.2211 10.0593 49.3714 10.0907C49.4506 10.1142 49.498 10.1142 49.5455 10.1378V12.649ZM50.5584 19.6332V6.27683H53.0749V11.3777C53.431 10.9225 53.8346 10.5694 54.341 10.2947C55.1428 9.90489 56.0537 9.79431 56.9266 9.98083C57.7995 10.1673 58.5836 10.6401 59.1524 11.3227C60.0057 12.2979 60.4577 13.5557 60.4185 14.8463C60.4316 16.1621 59.9651 17.4384 59.1049 18.4404C58.707 18.9029 58.2117 19.2733 57.6539 19.5255C57.0961 19.7777 56.4893 19.9055 55.8762 19.9C55.2994 19.9157 54.728 19.7856 54.2158 19.522C53.7036 19.2585 53.2675 18.87 52.9483 18.3933L52.8692 19.6254L50.5584 19.6489V19.6332ZM55.4252 17.6556C55.8762 17.6556 56.2798 17.5301 56.6597 17.3025C57.0079 17.0514 57.2927 16.7218 57.5143 16.3216C57.7201 15.9214 57.815 15.4427 57.815 14.909C57.815 14.3833 57.7201 13.9046 57.5143 13.5043C57.3065 13.1184 57.0145 12.7833 56.6597 12.5234C56.2893 12.2945 55.8616 12.1732 55.4252 12.1732C54.9888 12.1732 54.5611 12.2945 54.1907 12.5234C53.8346 12.7745 53.5576 13.1041 53.3281 13.5043C53.1189 13.9457 53.0159 14.4293 53.0274 14.9169C52.9966 15.3804 53.0875 15.8438 53.2914 16.262C53.4953 16.6802 53.8052 17.0387 54.1907 17.3025C54.5626 17.5301 54.9662 17.6556 55.4252 17.6556ZM61.3681 19.6411V10.1613H63.6868L63.7659 11.3934C64.0573 10.9211 64.4706 10.5346 64.9631 10.2738C65.4556 10.0131 66.0094 9.88754 66.5673 9.9102C67.2051 9.89928 67.8321 10.0751 68.3698 10.4157C68.9075 10.7562 69.332 11.2464 69.5902 11.825C69.8671 12.4214 70.0175 13.1591 70.0175 13.983V19.6646H67.4931V14.3126C67.4931 13.6534 67.3428 13.1355 67.0421 12.751C66.7413 12.3743 66.3298 12.1703 65.8076 12.1703C65.4277 12.1703 65.0954 12.2487 64.8026 12.4214C64.5256 12.6019 64.2961 12.8295 64.122 13.1512C63.946 13.4764 63.8587 13.8416 63.8688 14.2106V19.6411H61.3681ZM71.2757 19.6411V6.26898H73.8001V11.3698C74.142 10.9121 74.5868 10.5398 75.0992 10.2823C75.6116 10.0249 76.1774 9.8894 76.7518 9.88666C77.3481 9.87801 77.9387 10.0026 78.4799 10.2512C79.021 10.4998 79.4987 10.8661 79.8776 11.3227C80.7248 12.2978 81.1736 13.5519 81.1358 14.8384C81.1496 16.1544 80.683 17.4309 79.8222 18.4325C79.4243 18.8951 78.929 19.2654 78.3712 19.5176C77.8134 19.7698 77.2066 19.8977 76.5935 19.8922C76.0167 19.9078 75.4453 19.7778 74.9331 19.5142C74.4209 19.2506 73.9847 18.8622 73.6656 18.3855L73.5944 19.6175L71.2757 19.6411ZM76.1662 17.6556C76.6252 17.6556 77.0288 17.5301 77.4007 17.3025C77.7568 17.0514 78.0338 16.7218 78.2633 16.3216C78.4611 15.9214 78.564 15.4427 78.564 14.909C78.5948 14.4456 78.5038 13.9821 78.2999 13.5639C78.096 13.1458 77.7862 12.7872 77.4007 12.5234C77.0303 12.2945 76.6026 12.1732 76.1662 12.1732C75.7298 12.1732 75.3021 12.2945 74.9317 12.5234C74.5835 12.7745 74.2987 13.1041 74.0771 13.5043C73.8562 13.9418 73.7526 14.4282 73.7764 14.9169C73.7455 15.3804 73.8365 15.8438 74.0404 16.262C74.2443 16.6802 74.5541 17.0387 74.9396 17.3025C75.3116 17.5301 75.6914 17.6556 76.1662 17.6556Z" fill="#FF385C"/>
</g>
<defs>
<clipPath id="clip0_431_64">
<rect width="80.7167" height="25.1119" fill="white" transform="translate(0.699219 0.988281)"/>
</clipPath>
</defs>
</svg>
