<svg width="72" height="23" viewBox="0 0 72 23" fill="none" xmlns="http://www.w3.org/2000/svg">
<g clip-path="url(#clip0_431_93)">
<path d="M53.4141 21.6638L59.3976 15.0367L53.4141 8.40869H59.7273L62.6908 11.6281L65.5445 8.40869H71.6375L65.6824 15.0093L71.7192 21.6638H65.3801L62.4434 18.4179L59.5345 21.6638H53.4141Z" fill="#FF6600"/>
<path d="M53.4139 5.43588H46.6371V8.40718H53.4139V12.8852H46.6371V16.9954H53.4139V21.6622H41.6562V0.781982H53.4139V5.43588Z" fill="#FF6600"/>
<path d="M36.6918 0.781982V9.32719H36.6372C35.5392 8.08308 34.1672 7.65074 32.5753 7.65074C29.3145 7.65074 26.8583 9.83578 25.996 12.7247C25.0128 9.54152 22.4769 7.59109 18.7167 7.59109C15.663 7.59109 13.2517 8.94221 11.9933 11.1439V8.40748H5.68131V5.43649H12.5694V0.781982H0.0546875V21.6626H5.68131V12.8852H11.2895C11.1223 13.53 11.0331 14.2203 11.0331 14.9488C11.0331 19.3044 14.4087 22.3606 18.7167 22.3606C22.3394 22.3606 24.7267 20.6841 25.9895 17.6276H21.1677C20.5154 18.5458 20.0207 18.8186 18.7167 18.8186C17.2047 18.8186 15.9011 17.5182 15.9011 15.9767H25.7193C26.1451 19.4363 28.8791 22.4199 32.6309 22.4199C34.2493 22.4199 35.731 21.6352 36.6372 20.3102H36.6918V21.6619H41.6518V0.781982H36.6918ZM16.0577 12.9476C16.3705 11.6214 17.414 10.7546 18.7167 10.7546C20.1507 10.7546 21.1412 11.5946 21.4017 12.9476C21.5115 12.9476 16.0577 12.9476 16.0577 12.9476ZM33.6818 18.4831C31.8535 18.4831 30.7174 16.8039 30.7174 15.0505C30.7174 13.1764 31.7056 11.3742 33.6818 11.3742C35.731 11.3742 36.5474 13.1764 36.5474 15.0505C36.5471 16.8279 35.682 18.4831 33.6818 18.4831Z" fill="#652C8F"/>
</g>
<defs>
<clipPath id="clip0_431_93">
<rect width="71.7482" height="21.5245" fill="white" transform="translate(0.0546875 0.781982)"/>
</clipPath>
</defs>
</svg>
