<svg width="77" height="27" viewBox="0 0 77 27" fill="none" xmlns="http://www.w3.org/2000/svg">
<g clip-path="url(#clip0_431_77)">
<path d="M32.8095 13.8663C32.8095 17.3519 30.0426 19.9204 26.6469 19.9204C23.2513 19.9204 20.4844 17.3519 20.4844 13.8663C20.4844 10.3561 23.2513 7.81213 26.6469 7.81213C30.0426 7.81213 32.8095 10.3561 32.8095 13.8663ZM30.1118 13.8663C30.1118 11.6881 28.5082 10.1978 26.6469 10.1978C24.7857 10.1978 23.1821 11.6881 23.1821 13.8663C23.1821 16.0226 24.7857 17.5348 26.6469 17.5348C28.5082 17.5348 30.1118 16.0199 30.1118 13.8663Z" fill="#EA4335"/>
<path d="M46.1064 13.8663C46.1064 17.3519 43.3395 19.9204 39.9438 19.9204C36.5482 19.9204 33.7812 17.3519 33.7812 13.8663C33.7812 10.3588 36.5482 7.81213 39.9438 7.81213C43.3395 7.81213 46.1064 10.3561 46.1064 13.8663ZM43.4087 13.8663C43.4087 11.6881 41.805 10.1978 39.9438 10.1978C38.0826 10.1978 36.4789 11.6881 36.4789 13.8663C36.4789 16.0226 38.0826 17.5348 39.9438 17.5348C41.805 17.5348 43.4087 16.0199 43.4087 13.8663Z" fill="#FBBC05"/>
<path d="M58.8431 8.17789V19.047C58.8431 23.518 56.1676 25.344 53.0046 25.344C50.0272 25.344 48.2352 23.3815 47.5594 21.7765L49.9081 20.813C50.3263 21.7984 51.3511 22.9611 53.0019 22.9611C55.0265 22.9611 56.2812 21.7301 56.2812 19.4127V18.542H56.187C55.5832 19.2762 54.4199 19.9177 52.952 19.9177C49.8804 19.9177 47.0664 17.2809 47.0664 13.8881C47.0664 10.4707 49.8804 7.81213 52.952 7.81213C54.4172 7.81213 55.5804 8.45358 56.187 9.16599H56.2812V8.18062H58.8431V8.17789ZM56.4723 13.8881C56.4723 11.7563 55.0293 10.1978 53.193 10.1978C51.3317 10.1978 49.7724 11.7563 49.7724 13.8881C49.7724 15.9981 51.3317 17.5348 53.193 17.5348C55.0293 17.5348 56.4723 15.9981 56.4723 13.8881Z" fill="#4285F4"/>
<path d="M63.0687 1.80798V19.5501H60.4375V1.80798H63.0687Z" fill="#34A853"/>
<path d="M73.3237 15.8589L75.4176 17.2346C74.7418 18.22 73.1132 19.9177 70.2992 19.9177C66.8094 19.9177 64.2031 17.2592 64.2031 13.8636C64.2031 10.2633 66.8316 7.80945 69.9973 7.80945C73.1852 7.80945 74.7446 10.3097 75.2542 11.6608L75.5339 12.3487L67.3218 15.7006C67.9505 16.9152 68.9282 17.5348 70.2992 17.5348C71.673 17.5348 72.6258 16.8688 73.3237 15.8589ZM66.8786 13.6807L72.3682 11.4343C72.0663 10.6782 71.1578 10.1514 70.0887 10.1514C68.7177 10.1514 66.8094 11.3442 66.8786 13.6807Z" fill="#EA4335"/>
<path d="M10.5222 12.2927V9.7242H19.3049C19.3907 10.1718 19.4351 10.7014 19.4351 11.2746C19.4351 13.2016 18.9005 15.5845 17.1778 17.2823C15.5021 19.0019 13.3611 19.9191 10.525 19.9191C5.26808 19.9191 0.847656 15.6992 0.847656 10.5185C0.847656 5.33781 5.26808 1.11792 10.525 1.11792C13.4331 1.11792 15.5049 2.24249 17.0614 3.70826L15.2224 5.52069C14.1062 4.48892 12.5939 3.68643 10.5222 3.68643C6.6834 3.68643 3.68105 6.73534 3.68105 10.5185C3.68105 14.3017 6.6834 17.3506 10.5222 17.3506C13.0121 17.3506 14.4302 16.3652 15.3387 15.4699C16.0754 14.7438 16.5601 13.7066 16.7512 12.29L10.5222 12.2927Z" fill="#4285F4"/>
</g>
<defs>
<clipPath id="clip0_431_77">
<rect width="75.3356" height="25.1119" fill="white" transform="translate(0.75 0.988281)"/>
</clipPath>
</defs>
</svg>
