<svg width="76" height="23" viewBox="0 0 76 23" fill="none" xmlns="http://www.w3.org/2000/svg">
<g clip-path="url(#clip0_431_66)">
<path d="M8.5686 4.34485V10.4163H3.03656V4.34485H0.410156V18.838H3.03656V12.9637H8.5686V18.838H11.195V4.34485H8.5686Z" fill="#33475B"/>
<path d="M19.5986 14.1531C19.5986 14.7339 19.3697 15.291 18.9622 15.7017C18.5547 16.1124 18.0021 16.3432 17.4258 16.3432C16.8495 16.3432 16.2969 16.1124 15.8894 15.7017C15.4819 15.291 15.253 14.7339 15.253 14.1531V7.94543H12.7617V14.1531C12.7617 15.3987 13.2526 16.5933 14.1265 17.4741C15.0003 18.3549 16.1855 18.8497 17.4213 18.8497C18.6571 18.8497 19.8423 18.3549 20.7161 17.4741C21.59 16.5933 22.0809 15.3987 22.0809 14.1531V7.94543H19.5986V14.1531Z" fill="#33475B"/>
<path d="M38.0584 8.58489C38.0584 7.31249 38.8935 6.90911 39.8084 6.90911C40.5458 6.90911 41.5199 7.47462 42.1569 8.16076L43.7886 6.22297C42.974 5.1127 41.3217 4.34485 39.9693 4.34485C37.267 4.34485 35.3123 5.94021 35.3123 8.58489C35.3123 13.4916 41.2625 11.9352 41.2625 14.681C41.2625 15.528 40.4467 16.2764 39.5125 16.2764C38.0391 16.2764 37.5616 15.55 36.8848 14.7822L35.0742 16.6797C36.2324 18.113 37.6607 18.8406 39.3722 18.8406C41.9394 18.8406 44.0048 17.2258 44.0048 14.7018C44.0048 9.25416 38.0545 10.9468 38.0545 8.58489" fill="#33475B"/>
<path d="M74.8695 16.5228C73.3974 16.5228 72.9792 15.8808 72.9792 14.8976V10.546H75.2671V8.34103H72.9792V5.43176L70.4531 6.57446V15.4385C70.4531 17.7057 72.005 18.8484 74.1334 18.8484C74.4672 18.8545 74.8008 18.8276 75.1294 18.768L75.7458 16.4813C75.4679 16.5007 75.1487 16.5202 74.8695 16.5202" fill="#33475B"/>
<path d="M29.0828 8.01809C27.8488 8.01809 26.9879 8.37867 26.1553 9.20229V4.43176H23.6602V13.2737C23.6602 16.5838 26.0343 18.851 28.7019 18.851C31.6616 18.851 34.2648 16.5436 34.2648 13.4358C34.2648 10.367 31.8688 8.01939 29.0828 8.01939V8.01809ZM29.0674 16.3205C28.5075 16.3205 27.9601 16.1531 27.4946 15.8396C27.029 15.526 26.6661 15.0804 26.4519 14.559C26.2376 14.0376 26.1815 13.4638 26.2908 12.9103C26.4 12.3568 26.6696 11.8483 27.0656 11.4492C27.4615 11.0502 27.9659 10.7784 28.5151 10.6683C29.0642 10.5582 29.6335 10.6147 30.1508 10.8307C30.6681 11.0467 31.1102 11.4124 31.4213 11.8817C31.7323 12.3509 31.8984 12.9026 31.8984 13.467C31.8984 14.2238 31.6001 14.9496 31.0692 15.4847C30.5383 16.0198 29.8182 16.3205 29.0674 16.3205Z" fill="#33475B"/>
<path d="M56.175 13.3019C56.175 10.189 53.5769 7.88672 50.6121 7.88672C47.9445 7.88672 45.5703 10.154 45.5703 13.464V22.3111H48.0655V17.5341C48.8967 18.3565 49.7589 18.7183 50.9917 18.7183C53.7776 18.7183 56.1737 16.372 56.1737 13.3019H56.175ZM53.8124 13.2708C53.8124 13.8351 53.6464 14.3868 53.3353 14.8561C53.0242 15.3253 52.5821 15.6911 52.0648 15.907C51.5475 16.123 50.9782 16.1795 50.4291 16.0694C49.8799 15.9593 49.3755 15.6875 48.9796 15.2885C48.5836 14.8894 48.314 14.381 48.2048 13.8274C48.0955 13.2739 48.1516 12.7002 48.3659 12.1788C48.5802 11.6574 48.943 11.2117 49.4086 10.8982C49.8741 10.5846 50.4215 10.4173 50.9814 10.4173C51.7322 10.4173 52.4523 10.7179 52.9832 11.253C53.5141 11.7882 53.8124 12.514 53.8124 13.2708Z" fill="#33475B"/>
<path d="M64.2388 7.76787V5.24122C64.57 5.08521 64.8505 4.83756 65.0476 4.5271C65.2446 4.21665 65.3502 3.85617 65.3519 3.48762V3.42925C65.3519 2.91325 65.1485 2.41839 64.7865 2.05353C64.4245 1.68866 63.9336 1.48368 63.4216 1.48368H63.3637C62.8518 1.48368 62.3608 1.68866 61.9988 2.05353C61.6369 2.41839 61.4335 2.91325 61.4335 3.42925V3.48762C61.4352 3.85617 61.5407 4.21665 61.7378 4.5271C61.9348 4.83756 62.2153 5.08521 62.5466 5.24122V7.76787C61.5945 7.91468 60.6978 8.31247 59.9472 8.92094L53.073 3.52394C53.1217 3.34596 53.1476 3.16247 53.1502 2.97788C53.151 2.54429 53.0242 2.12021 52.7858 1.75928C52.5474 1.39835 52.2082 1.11679 51.811 0.950208C51.4138 0.783627 50.9766 0.739511 50.5546 0.823441C50.1325 0.90737 49.7447 1.11557 49.44 1.42172C49.1354 1.72786 48.9277 2.11819 48.8432 2.54333C48.7587 2.96847 48.8011 3.40933 48.9652 3.81014C49.1293 4.21094 49.4076 4.5537 49.765 4.79504C50.1224 5.03639 50.5428 5.16548 50.9729 5.16599C51.3491 5.1643 51.7182 5.06323 52.0436 4.87286L58.8135 10.1817C58.2052 11.1077 57.8878 12.197 57.9028 13.3076C57.9177 14.4181 58.2642 15.4984 58.8972 16.4075L56.8383 18.4828C56.6718 18.4292 56.4983 18.4008 56.3235 18.3984C55.9704 18.3987 55.6252 18.5045 55.3317 18.7024C55.0382 18.9003 54.8095 19.1815 54.6744 19.5104C54.5394 19.8393 54.5041 20.2012 54.5731 20.5503C54.6421 20.8994 54.8121 21.2201 55.0618 21.4717C55.3116 21.7234 55.6297 21.8949 55.976 21.9644C56.3224 22.0339 56.6814 21.9984 57.0077 21.8623C57.3341 21.7262 57.613 21.4956 57.8094 21.1997C58.0057 20.9039 58.1107 20.556 58.1109 20.2C58.1087 20.0239 58.0805 19.849 58.0273 19.6812L60.0643 17.628C60.7285 18.1432 61.501 18.4984 62.3224 18.6662C63.1438 18.8341 63.9924 18.8103 64.8033 18.5965C65.6142 18.3828 66.3658 17.9848 67.0005 17.4331C67.6352 16.8814 68.1362 16.1906 68.4652 15.4136C68.7942 14.6366 68.9423 13.794 68.8983 12.9503C68.8544 12.1067 68.6194 11.2844 68.2114 10.5464C67.8035 9.80845 67.2334 9.17437 66.5448 8.69276C65.8562 8.21114 65.0674 7.89477 64.2388 7.76787ZM63.3946 16.0767C62.8374 16.0762 62.2928 15.9092 61.8298 15.5969C61.3667 15.2845 61.0059 14.8407 60.7929 14.3217C60.58 13.8027 60.5245 13.2317 60.6334 12.6809C60.7423 12.1301 61.0108 11.6242 61.4049 11.2272C61.799 10.8301 62.301 10.5598 62.8475 10.4502C63.3941 10.3407 63.9605 10.3969 64.4753 10.6118C64.9902 10.8266 65.4302 11.1905 65.7399 11.6574C66.0496 12.1243 66.2151 12.6733 66.2153 13.2349C66.2153 13.9883 65.9184 14.7108 65.3899 15.2435C64.8614 15.7762 64.1446 16.0754 63.3972 16.0754" fill="#FF7A59"/>
</g>
<defs>
<clipPath id="clip0_431_66">
<rect width="75.3356" height="21.5245" fill="white" transform="translate(0.414062 0.781982)"/>
</clipPath>
</defs>
</svg>
