<svg width="110" height="25" viewBox="0 0 110 25" fill="none" xmlns="http://www.w3.org/2000/svg">
<g clip-path="url(#clip0_431_84)">
<path d="M38.7059 14.3157L38.0537 16.1594H37.9994C37.8907 15.7437 37.6914 15.111 37.3653 14.3518L33.8691 5.58492H30.4453V19.5577H32.7097V10.9354C32.7097 10.3932 32.7097 9.77858 32.6916 9.01938C32.6735 8.63978 32.6373 8.35056 32.6191 8.13365H32.6735C32.7822 8.67593 32.909 9.07361 32.9996 9.32667L37.2023 19.5216H38.7964L42.9629 9.23629C43.0535 9.00131 43.1441 8.53133 43.2347 8.13365H43.289C43.2347 9.16399 43.1984 10.0859 43.1803 10.6462V19.5035H45.5896V5.54877H42.2927L38.7059 14.3157ZM47.8722 9.48936H50.2271V19.5035H47.8722V9.48936ZM49.0678 5.25955C48.6692 5.25955 48.3432 5.40416 48.0714 5.65723C47.7997 5.91029 47.6548 6.23566 47.6548 6.63334C47.6548 7.01293 47.7997 7.3383 48.0714 7.59137C48.3432 7.84443 48.6692 7.97097 49.0678 7.97097C49.4663 7.97097 49.8105 7.82636 50.0641 7.59137C50.3358 7.3383 50.4808 7.01293 50.4808 6.63334C50.4808 6.25374 50.3358 5.92837 50.0641 5.65723C49.8286 5.40416 49.4844 5.25955 49.0678 5.25955ZM58.5783 9.39898C58.1435 9.3086 57.6906 9.25437 57.2559 9.25437C56.1871 9.25437 55.2088 9.48936 54.3936 9.95934C53.5785 10.4293 52.9263 11.0801 52.5097 11.8935C52.0749 12.725 51.8575 13.683 51.8575 14.7857C51.8575 15.7437 52.0749 16.5933 52.4915 17.3705C52.9082 18.1297 53.4879 18.7443 54.2668 19.1601C55.0096 19.5758 55.8791 19.7927 56.8573 19.7927C57.9805 19.7927 58.9406 19.5577 59.7014 19.1239L59.7195 19.1058V16.9367L59.629 17.009C59.2848 17.2621 58.8862 17.479 58.4877 17.6055C58.071 17.7501 57.6906 17.8224 57.3645 17.8224C56.4226 17.8224 55.6798 17.5513 55.1545 16.9548C54.611 16.3764 54.3393 15.581 54.3393 14.5868C54.3393 13.5565 54.611 12.7431 55.1726 12.1465C55.7342 11.55 56.4769 11.2427 57.3827 11.2427C58.1435 11.2427 58.9225 11.4958 59.629 12.0019L59.7195 12.0742V9.77858L59.7014 9.7605C59.3935 9.63397 59.0493 9.48936 58.5783 9.39898ZM66.3497 9.32667C65.77 9.32667 65.2266 9.50744 64.7556 9.88703C64.357 10.2124 64.0853 10.6824 63.8498 11.2427H63.8317V9.48936H61.4767V19.5035H63.8317V14.388C63.8317 13.5203 64.0128 12.7973 64.4114 12.2731C64.8099 11.7308 65.3171 11.4597 65.933 11.4597C66.1504 11.4597 66.3678 11.5139 66.6395 11.55C66.8932 11.6223 67.0743 11.6946 67.2011 11.785L67.2917 11.8573V9.50744L67.2374 9.48936C67.0743 9.3809 66.7482 9.32667 66.3497 9.32667ZM72.7625 9.27245C71.114 9.27245 69.7916 9.7605 68.8677 10.7185C67.9257 11.6766 67.4728 12.9961 67.4728 14.6591C67.4728 16.2137 67.9438 17.479 68.8496 18.4009C69.7554 19.3047 70.9872 19.7747 72.527 19.7747C74.1392 19.7747 75.4254 19.2866 76.3493 18.3105C77.2913 17.3344 77.7442 16.0329 77.7442 14.4241C77.7442 12.8334 77.3094 11.5681 76.4218 10.6462C75.5704 9.72435 74.3204 9.27245 72.7625 9.27245ZM74.6465 16.9729C74.2117 17.5332 73.5233 17.8044 72.6719 17.8044C71.8205 17.8044 71.1321 17.5332 70.643 16.9367C70.1539 16.3764 69.9184 15.5629 69.9184 14.5326C69.9184 13.4661 70.172 12.6527 70.643 12.0742C71.1321 11.4958 71.8024 11.2066 72.6538 11.2066C73.4871 11.2066 74.1392 11.4777 74.6102 12.0381C75.0812 12.5984 75.3349 13.4119 75.3349 14.4784C75.2986 15.5629 75.0994 16.4125 74.6465 16.9729ZM82.9976 13.6469C82.2549 13.3396 81.7839 13.1046 81.5665 12.9057C81.3853 12.725 81.2948 12.4719 81.2948 12.1465C81.2948 11.8754 81.4035 11.6043 81.6752 11.4235C81.9469 11.2427 82.2549 11.1524 82.7078 11.1524C83.1063 11.1524 83.5229 11.2247 83.9215 11.3331C84.32 11.4416 84.6823 11.6043 84.9722 11.8212L85.0627 11.8935V9.6882L85.0084 9.67012C84.7367 9.56166 84.3744 9.45321 83.9396 9.36283C83.5048 9.29052 83.1063 9.25437 82.7802 9.25437C81.6571 9.25437 80.7332 9.52551 80.0086 10.122C79.284 10.6824 78.9398 11.4416 78.9398 12.3273C78.9398 12.7973 79.0122 13.213 79.1753 13.5565C79.3383 13.8999 79.5738 14.2253 79.8999 14.4964C80.226 14.7495 80.697 15.0387 81.3491 15.3099C81.8926 15.5449 82.3092 15.7256 82.5628 15.8702C82.8164 16.0148 82.9795 16.1775 83.1063 16.304C83.1969 16.4487 83.2512 16.6294 83.2512 16.8644C83.2512 17.5332 82.744 17.8586 81.7114 17.8586C81.3129 17.8586 80.8962 17.7863 80.4071 17.6236C79.918 17.4609 79.4651 17.2259 79.0847 16.9548L78.9941 16.8825V19.1781L79.0485 19.1962C79.3927 19.3589 79.8093 19.4674 80.3165 19.5939C80.8238 19.6843 81.2766 19.7566 81.6752 19.7566C82.8889 19.7566 83.8852 19.4854 84.5917 18.8889C85.3163 18.3105 85.6968 17.5694 85.6968 16.6113C85.6968 15.9425 85.5156 15.346 85.1171 14.8941C84.5917 14.4603 83.9396 14.0084 82.9976 13.6469ZM91.9103 9.27245C90.2618 9.27245 88.9394 9.7605 88.0155 10.7185C87.0916 11.6766 86.6206 12.9961 86.6206 14.6591C86.6206 16.2137 87.0916 17.479 87.9974 18.4009C88.9032 19.3047 90.135 19.7747 91.6748 19.7747C93.287 19.7747 94.5732 19.2866 95.4971 18.3105C96.4391 17.3344 96.892 16.0329 96.892 14.4241C96.892 12.8334 96.4572 11.5681 95.5696 10.6462C94.7181 9.72435 93.4682 9.27245 91.9103 9.27245ZM93.7762 16.9729C93.3414 17.5332 92.653 17.8044 91.8016 17.8044C90.9321 17.8044 90.2618 17.5332 89.7727 16.9367C89.2836 16.3764 89.0481 15.5629 89.0481 14.5326C89.0481 13.4661 89.3017 12.6527 89.7727 12.0742C90.2618 11.4958 90.9321 11.2066 91.7835 11.2066C92.5987 11.2066 93.2689 11.4777 93.7399 12.0381C94.2109 12.5984 94.4645 13.4119 94.4645 14.4784C94.4645 15.5629 94.229 16.4125 93.7762 16.9729ZM109.482 11.4235V9.48936H107.109V6.52488L107.037 6.54296L104.79 7.21177L104.736 7.22985V9.48936H101.185V8.22403C101.185 7.6456 101.33 7.19369 101.584 6.90448C101.837 6.61526 102.218 6.47065 102.689 6.47065C103.015 6.47065 103.359 6.54296 103.74 6.70564L103.83 6.75987V4.71727L103.776 4.69919C103.45 4.59074 103.015 4.51843 102.453 4.51843C101.747 4.51843 101.131 4.68112 100.569 4.95226C100.008 5.25955 99.5911 5.6753 99.2832 6.23566C98.9752 6.77794 98.8122 7.39253 98.8122 8.0975V9.48936H97.1637V11.4054H98.8122V19.5035H101.185V11.4235H104.736V16.5752C104.736 18.6901 105.732 19.7566 107.725 19.7566C108.051 19.7566 108.395 19.7024 108.721 19.6481C109.065 19.5758 109.319 19.4854 109.464 19.4131L109.482 19.3951V17.4609L109.391 17.5332C109.247 17.6236 109.12 17.6959 108.902 17.7501C108.721 17.8044 108.558 17.8224 108.431 17.8224C107.96 17.8224 107.634 17.714 107.399 17.4428C107.181 17.1898 107.073 16.774 107.073 16.1594V11.4235H109.482Z" fill="#737373"/>
<path d="M0.0859375 0.885132H11.1906V11.9658H0.0859375V0.885132Z" fill="#F25022"/>
<path d="M12.3477 0.885132H23.4523V11.9658H12.3477V0.885132Z" fill="#7FBA00"/>
<path d="M0.0859375 13.1227H11.1906V24.2033H0.0859375V13.1227Z" fill="#00A4EF"/>
<path d="M12.3477 13.1227H23.4523V24.2033H12.3477V13.1227Z" fill="#FFB900"/>
</g>
<defs>
<clipPath id="clip0_431_84">
<rect width="109.416" height="23.3182" fill="white" transform="translate(0.0859375 0.885132)"/>
</clipPath>
</defs>
</svg>
