<svg width="101" height="25" viewBox="0 0 101 25" fill="none" xmlns="http://www.w3.org/2000/svg">
<g clip-path="url(#clip0_431_90)">
<path d="M35.9313 9.17914V10.5006H35.9717C36.4472 9.7931 37.2366 8.95986 38.9864 8.95986C40.3477 8.95986 41.3919 9.65277 41.8395 10.6994H41.8799C42.2622 10.1703 42.7004 9.76971 43.1914 9.48612C43.7726 9.1499 44.4191 8.95694 45.2334 8.95694C47.0764 8.95694 48.708 10.1556 48.708 13.1787V18.912H45.8985V13.5792C45.8985 12.0472 45.3452 11.1614 44.1953 11.1614C43.3531 11.1614 42.7408 11.6935 42.5077 12.3484C42.4269 12.5735 42.3896 12.8805 42.3896 13.1378V18.9149H39.58V13.3629C39.58 12.0619 39.0486 11.1585 37.9142 11.1585C37.0066 11.1585 36.4379 11.8309 36.2048 12.4068C36.1053 12.6524 36.0743 12.936 36.0743 13.2021V18.912H33.2616V9.17914H35.9313ZM63.2097 9.17914V11.0152H63.2874C63.8033 9.61184 65.0278 8.95986 66.1032 8.95986C66.3736 8.95986 66.5227 8.98033 66.7403 9.02126V11.5707C66.4823 11.5356 66.243 11.5005 65.9074 11.5005C64.6891 11.5005 63.8406 12.1671 63.6261 13.2109C63.5795 13.4272 63.564 13.6611 63.564 13.9301V18.9149H60.6798V9.17914H63.2097ZM70.6563 5.95435V9.01833H73.0929V11.4976H70.6563V15.1551C70.6563 16.3392 70.9764 16.9122 71.9274 16.9122C72.375 16.9122 72.7044 16.8596 72.9903 16.7923L73.0276 18.8477C72.6454 18.9821 71.8311 19.1283 71.0044 19.1283C70.0316 19.1283 69.2204 18.8097 68.7263 18.3156C68.1606 17.7513 67.8996 16.8274 67.8996 15.5118V5.95435H70.6563ZM31.3036 18.912H28.5064V5.95435H31.3036V18.912ZM23.8445 15.4358C23.8445 15.6141 23.829 15.8012 23.7761 15.962C23.5586 16.6374 22.8158 17.2075 21.8896 17.2075C21.1158 17.2075 20.5004 16.7953 20.5004 15.9211C20.5004 14.585 22.0668 14.2137 23.8476 14.2224V15.4358H23.8445ZM26.6386 13.1056C26.6386 10.8982 25.6378 8.95986 22.2533 8.95986C20.5159 8.95986 19.136 9.41888 18.3839 9.82819L18.934 11.5999C19.6208 11.1906 20.7179 10.8544 21.756 10.8544C23.4747 10.8515 23.7544 11.7695 23.7544 12.3571V12.4975C20.0093 12.4916 17.6442 13.7108 17.6442 16.1959C17.6442 17.7133 18.847 19.1342 20.9417 19.1342C22.2315 19.1342 23.3069 18.6518 23.9533 17.877H24.0155C24.0155 17.877 24.4444 19.5581 26.8002 18.9149C26.6759 18.2132 26.6355 17.4677 26.6355 16.5701V13.1056H26.6386ZM3.5932 5.95435C3.88224 7.32554 4.70273 11.3076 4.70273 11.3076C5.04771 12.9448 5.36472 14.661 5.60403 16.0176H5.64754C5.88064 14.5762 6.24738 13.2109 6.63898 11.521L8.02201 5.95435H11.0833L12.3762 11.6642C12.715 13.2518 12.9854 14.4768 13.1998 15.9532H13.2402C13.4733 14.4622 13.7779 13.1875 14.1105 11.5561L15.3536 5.95435H18.2906L14.6512 18.912C12.3327 19.3885 11.4439 18.5114 11.1268 17.1198C10.8098 15.7252 10.1882 13.0734 10.1882 13.0734C9.86812 11.6204 9.61949 10.5971 9.44545 9.10605H9.40193C9.1533 10.5825 8.89223 11.6175 8.50685 13.0705L6.98085 18.9149C4.6126 19.3593 3.79211 18.7015 3.33835 16.9151C2.94675 15.3861 0.503906 5.95727 0.503906 5.95727H3.5932V5.95435ZM56.0179 15.4358C56.0179 15.6141 56.0024 15.8012 55.9495 15.962C55.732 16.6374 54.9892 17.2075 54.063 17.2075C53.2891 17.2075 52.6738 16.7953 52.6738 15.9211C52.6738 14.585 54.2402 14.2137 56.021 14.2224V15.4358H56.0179ZM58.8119 13.1056C58.8119 10.8982 57.8112 8.95986 54.4266 8.95986C52.6893 8.95986 51.3094 9.41888 50.5573 9.82819L51.1074 11.5999C51.7942 11.1906 52.8913 10.8544 53.9294 10.8544C55.645 10.8515 55.9278 11.7695 55.9278 12.3571V12.4975C52.1858 12.4916 49.8207 13.7108 49.8207 16.1959C49.8207 17.7133 51.0266 19.1342 53.1182 19.1342C54.4049 19.1342 55.4833 18.6518 56.1267 17.877H56.1919C56.1919 17.877 56.6208 19.5581 58.9767 18.9149C58.8523 18.2132 58.8119 17.4677 58.8119 16.5701V13.1056Z" fill="#041E42"/>
<path d="M84.429 14.4492C84.7047 14.9224 84.6861 15.4506 84.3918 15.6918L79.305 19.2057C78.7752 19.5079 77.9822 19.1416 77.533 18.3753C77.0807 17.6059 77.1612 16.7481 77.691 16.4458L83.323 13.8631C83.6762 13.7287 84.1533 13.976 84.429 14.4492ZM91.1237 14.4492C91.4025 13.976 91.8765 13.7318 92.2297 13.86L97.8648 16.4428C98.3946 16.745 98.472 17.6029 98.0228 18.3722C97.5705 19.1385 96.7744 19.5018 96.2477 19.2026L91.1609 15.6887C90.8696 15.4506 90.848 14.9194 91.1237 14.4492ZM87.7748 16.3543C88.3293 16.3543 88.7847 16.6351 88.8467 17.0045L89.395 23.1042C89.395 23.7087 88.6794 24.2033 87.7779 24.2033C86.8795 24.2033 86.1608 23.7087 86.1608 23.1042L86.706 17.0045C86.768 16.6351 87.2234 16.3543 87.7748 16.3543ZM91.1609 9.39971L96.2477 5.88275C96.7744 5.58052 97.5705 5.94381 98.0228 6.71315C98.472 7.48248 98.3946 8.34035 97.8648 8.64259L92.2297 11.2284C91.8765 11.3566 91.3994 11.1124 91.1237 10.6392C90.848 10.166 90.8696 9.63784 91.1609 9.39971ZM83.323 11.2284L77.691 8.64259C77.1643 8.34035 77.0838 7.48248 77.533 6.71315C77.9822 5.94381 78.7783 5.58052 79.305 5.88275L84.3918 9.39971C84.6861 9.63479 84.7047 10.166 84.429 10.6392C84.1533 11.1124 83.6762 11.3566 83.323 11.2284ZM86.706 8.08391L86.1608 1.98418C86.1608 1.3797 86.8764 0.885132 87.7779 0.885132C88.6794 0.885132 89.395 1.3797 89.395 1.98418L88.8467 8.08391C88.7847 8.45026 88.3293 8.73418 87.7748 8.73418C87.2234 8.73418 86.768 8.45026 86.706 8.08391ZM99.3983 19.1813V19.0286H99.5377C99.5842 19.0286 99.6152 19.0591 99.6152 19.1049C99.6152 19.1477 99.5842 19.1813 99.5377 19.1813H99.3983ZM99.2837 19.4591C99.2837 19.4743 99.2961 19.4896 99.3147 19.4896H99.3735C99.389 19.4896 99.4045 19.4743 99.4045 19.4591V19.2851H99.5005L99.578 19.4682C99.5842 19.4804 99.5935 19.4896 99.6059 19.4896H99.6771C99.6988 19.4896 99.7143 19.4682 99.705 19.4469C99.6771 19.3919 99.6493 19.3339 99.6214 19.2759C99.6678 19.2606 99.7391 19.2148 99.7391 19.1049C99.7391 18.9889 99.6431 18.9218 99.547 18.9218H99.3147C99.2992 18.9218 99.2837 18.937 99.2837 18.9523V19.4591ZM99.0328 19.2057C99.0328 18.9584 99.2372 18.7569 99.4882 18.7569C99.7391 18.7569 99.9436 18.9553 99.9436 19.2057C99.9436 19.453 99.7422 19.6545 99.4882 19.6545C99.2341 19.6545 99.0328 19.453 99.0328 19.2057ZM98.9243 19.2057C98.9243 19.511 99.1753 19.7613 99.4882 19.7613C99.7979 19.7613 100.052 19.511 100.052 19.2057C100.052 18.9004 99.7979 18.65 99.4882 18.65C99.1753 18.65 98.9243 18.9004 98.9243 19.2057Z" fill="#FFC124"/>
</g>
<defs>
<clipPath id="clip0_431_90">
<rect width="99.5506" height="23.3182" fill="white" transform="translate(0.503906 0.885132)"/>
</clipPath>
</defs>
</svg>
