<svg width="360" height="360" viewBox="0 0 360 360" fill="none" xmlns="http://www.w3.org/2000/svg">
<rect opacity="0.3" width="360" height="360" fill="url(#paint0_linear_2012_34)"/>
<mask id="mask0_2012_34" style="mask-type:alpha" maskUnits="userSpaceOnUse" x="0" y="0" width="360" height="360">
<rect opacity="0.3" width="360" height="360" fill="url(#paint1_linear_2012_34)"/>
</mask>
<g mask="url(#mask0_2012_34)">
</g>
<path fill-rule="evenodd" clip-rule="evenodd" d="M180 360C279.408 360 360 279.408 360 180C360 80.5916 279.408 0 180 0C80.5916 0 0 80.5886 0 180C0 279.411 80.5916 360 180 360ZM179.973 187.203C136.44 187.203 100.8 151.596 100.8 108C100.8 64.4037 136.443 28.8 179.973 28.8C223.557 28.8 259.2 64.4037 259.2 108C259.2 151.596 223.557 187.203 179.973 187.203ZM316.213 249.87C317.257 251.961 316.909 254.405 315.169 256.502C312.38 261.336 309.294 265.877 305.815 270.363C300.99 276.994 295.415 282.881 289.894 288.417C285.02 293.303 279.499 298.14 273.927 302.33C246.564 322.829 213.628 333.599 179.646 333.599C145.718 333.599 112.783 322.829 85.4229 302.33C79.8504 297.844 74.3264 293.303 69.4498 288.417C63.5778 282.881 58.3563 276.994 53.5281 270.363C50.394 266.228 46.9634 261.336 44.1771 256.502C43.1304 254.405 42.7825 251.961 43.8292 249.87C45.9166 245.03 48.6545 239.793 51.7886 235.307C67.3593 211.668 92.3355 196.006 120.046 192.219C123.531 191.52 127.358 192.567 130.099 194.666C144.675 205.439 161.988 210.972 179.997 210.972C198.054 210.972 215.371 205.436 229.949 194.666C232.681 192.57 236.514 191.868 239.999 192.219C267.707 196.006 292.281 211.668 308.251 235.307C311.388 239.793 314.123 244.679 316.213 249.87Z" fill="white"/>
<defs>
<linearGradient id="paint0_linear_2012_34" x1="180" y1="0" x2="180" y2="404.785" gradientUnits="userSpaceOnUse">
<stop offset="0.0698835" stop-color="#E1F3FF"/>
<stop offset="0.977231" stop-color="#D8CEFF" stop-opacity="0.77"/>
</linearGradient>
<linearGradient id="paint1_linear_2012_34" x1="180" y1="0" x2="180" y2="404.785" gradientUnits="userSpaceOnUse">
<stop offset="0.0698835" stop-color="#E1F3FF"/>
<stop offset="0.977231" stop-color="#D8CEFF" stop-opacity="0.77"/>
</linearGradient>
</defs>
</svg>
