<svg width="360" height="360" viewBox="0 0 360 360" fill="none" xmlns="http://www.w3.org/2000/svg">
<rect opacity="0.3" width="360" height="360" fill="url(#paint0_linear_2012_49)"/>
<mask id="mask0_2012_49" style="mask-type:alpha" maskUnits="userSpaceOnUse" x="0" y="0" width="360" height="360">
<rect opacity="0.3" width="360" height="360" fill="url(#paint1_linear_2012_49)"/>
</mask>
<g mask="url(#mask0_2012_49)">
</g>
<path fill-rule="evenodd" clip-rule="evenodd" d="M179.976 187.2C223.56 187.2 259.201 151.597 259.201 108C259.201 64.4028 223.56 28.8 179.976 28.8C136.442 28.8 100.801 64.4028 100.801 108C100.801 151.597 136.442 187.2 179.976 187.2Z" fill="white"/>
<path fill-rule="evenodd" clip-rule="evenodd" d="M316.212 249.866C314.122 244.68 311.386 239.792 308.252 235.304C292.282 211.665 267.705 196.006 239.994 192.215C236.512 191.866 232.681 192.565 229.945 194.659C215.368 205.431 198.055 210.967 179.996 210.967C161.986 210.967 144.673 205.431 130.097 194.659C127.36 192.565 123.53 191.517 120.047 192.215C92.3363 196.006 67.3618 211.665 51.79 235.304C48.6558 239.792 45.9195 245.029 43.83 249.866C42.7853 251.961 43.1335 254.405 44.1783 256.499C46.9643 261.337 50.397 266.224 53.5313 270.363C58.3571 276.996 63.5808 282.881 69.4513 288.417C74.3268 293.304 79.8491 297.842 85.4211 302.331C112.784 322.828 145.718 333.6 179.648 333.6C213.627 333.6 246.561 322.828 273.924 302.331C279.496 298.142 285.018 293.304 289.894 288.417C295.416 282.881 300.988 276.996 305.814 270.363C309.296 265.875 312.381 261.337 315.167 256.499C316.908 254.405 317.256 251.961 316.212 249.866V249.866Z" fill="white"/>
<defs>
<linearGradient id="paint0_linear_2012_49" x1="176.5" y1="0.5" x2="178" y2="359" gradientUnits="userSpaceOnUse">
<stop offset="0.0678066" stop-color="#92D1FF"/>
<stop offset="0.948238" stop-color="#9A81FF"/>
</linearGradient>
<linearGradient id="paint1_linear_2012_49" x1="176.5" y1="0.5" x2="178" y2="359" gradientUnits="userSpaceOnUse">
<stop offset="0.0678066" stop-color="#92D1FF"/>
<stop offset="0.948238" stop-color="#9A81FF"/>
</linearGradient>
</defs>
</svg>
